<svg xmlns="http://www.w3.org/2000/svg" viewBox="-17590 -15052.301 29.988 31.837">
  <defs>
    <style>
      .cls-1 {
        fill: #fff;
      }
    </style>
  </defs>
  <g id="Group_83" data-name="Group 83" transform="translate(-19083 -15236)">
    <path id="_031_delete_item" data-name="031_delete_item" class="cls-1" d="M.119,5.824a.5.5,0,0,0,.716,0L2.971,3.687,5.108,5.824a.508.508,0,0,0,.716-.01.493.493,0,0,0,0-.7L3.687,2.971,5.824.834a.508.508,0,0,0-.01-.716.493.493,0,0,0-.7,0L2.971,2.256.834.119a.508.508,0,0,0-.716.01.493.493,0,0,0,0,.7L2.256,2.971.119,5.108A.518.518,0,0,0,.119,5.824Z" transform="translate(1518.752 183.734) rotate(45)"/>
    <path id="_043_attachments_menu" data-name="043_attachments_menu" class="cls-1" d="M7.99,23.536a7.887,7.887,0,0,1-5.625-2.324,8.017,8.017,0,0,1,0-11.27L10.822,1.66A5.828,5.828,0,0,1,14.26,0h.527a5.729,5.729,0,0,1,4.024,1.68,5.508,5.508,0,0,1,1.66,3.965,5.642,5.642,0,0,1-1.66,4.024l-7.618,7.422a3.275,3.275,0,0,1-2.383,1h0a3.384,3.384,0,0,1-2.4-5.762L9.084,9.649l1.563,1.563L8.185,13.751l-.2.1-.059.059a1.211,1.211,0,0,0,.879,2.051,1.106,1.106,0,0,0,.84-.352l7.618-7.52a3.478,3.478,0,0,0,0-4.844,3.534,3.534,0,0,0-2.481-1,3.454,3.454,0,0,0-2.461,1L3.908,11.622a5.8,5.8,0,0,0,0,8.086,5.753,5.753,0,0,0,8.164,0l.02-.02.273-.391,3.223-3.145,1.563,1.563-3.535,3.535A8.05,8.05,0,0,1,7.99,23.536Z" transform="translate(1492.949 192)"/>
  </g>
</svg>
