<svg xmlns="http://www.w3.org/2000/svg" viewBox="-17650 -15052.301 29.988 31.837">
  <defs>
    <style>
      .cls-1 {
        fill: #fff;
      }
    </style>
  </defs>
  <g id="Group_82" data-name="Group 82" transform="translate(-17650 -15044)">
    <path id="Path_125" data-name="Path 125" class="cls-1" d="M12.841,3.447a.761.761,0,0,0,.415-.1,12.547,12.547,0,0,1,6.221-1.581A12.691,12.691,0,0,1,25.7,3.344a.761.761,0,0,0,.415.1h0a.9.9,0,0,0,.778-.492.867.867,0,0,0,.052-.674.879.879,0,0,0-.441-.518A14.781,14.781,0,0,0,19.477,0a14.543,14.543,0,0,0-7.05,1.789.88.88,0,0,0-.337,1.192A.808.808,0,0,0,12.841,3.447Z" transform="translate(-8.877)"/>
    <path id="Path_126" data-name="Path 126" class="cls-1" d="M21.539,33.937a4.892,4.892,0,0,1,5.029,4.718.881.881,0,1,0,1.763,0A6.61,6.61,0,0,0,21.565,32.2,6.626,6.626,0,0,0,14.8,38.654a10.558,10.558,0,0,0,1.244,5.106,12.056,12.056,0,0,0,2.333,3.085A.8.8,0,0,0,19,47.1a.943.943,0,0,0,.648-.259.892.892,0,0,0,0-1.244,10.059,10.059,0,0,1-2.074-2.7,8.594,8.594,0,0,1-1.011-4.251A4.813,4.813,0,0,1,21.539,33.937Z" transform="translate(-10.965 -23.853)"/>
    <path id="Path_127" data-name="Path 127" class="cls-1" d="M22.715,30.554A9.507,9.507,0,0,0,12.968,21.3,9.78,9.78,0,0,0,4.1,26.743a8.764,8.764,0,0,0-.8,3.836,12.91,12.91,0,0,0,.855,4.64.875.875,0,0,0,.829.57,1.3,1.3,0,0,0,.311-.052.83.83,0,0,0,.492-.441.87.87,0,0,0,.026-.674,10.946,10.946,0,0,1-.752-4.018,6.8,6.8,0,0,1,.648-3.059,8.044,8.044,0,0,1,7.284-4.432,7.761,7.761,0,0,1,7.984,7.491,2.08,2.08,0,0,1-4.147,0,3.742,3.742,0,0,0-3.836-3.655,3.759,3.759,0,0,0-3.836,3.655,8.815,8.815,0,0,0,2.566,6.2A9.219,9.219,0,0,0,16.1,39.289a.718.718,0,0,0,.233.026.869.869,0,0,0,.207-1.711,7.245,7.245,0,0,1-3.6-2.048,6.857,6.857,0,0,1-2.048-4.925,2,2,0,0,1,2.074-1.918,2,2,0,0,1,2.074,1.918,3.742,3.742,0,0,0,3.836,3.655A3.807,3.807,0,0,0,22.715,30.554Z" transform="translate(-2.446 -15.779)"/>
    <path id="Path_128" data-name="Path 128" class="cls-1" d="M45.054,59.014a.329.329,0,0,0-.156.026,7.582,7.582,0,0,1-1.141.1,4.8,4.8,0,0,1-2.722-.752,4.638,4.638,0,0,1-2.074-3.81.881.881,0,1,0-1.763,0,6.331,6.331,0,0,0,2.851,5.262,6.494,6.494,0,0,0,3.707,1.063,7.7,7.7,0,0,0,1.426-.13.954.954,0,0,0,.57-.363.937.937,0,0,0,.156-.648A.884.884,0,0,0,45.054,59.014Z" transform="translate(-27.559 -39.781)"/>
    <path id="Path_129" data-name="Path 129" class="cls-1" d="M.86,17.362h0A.822.822,0,0,0,1.56,17a10.729,10.729,0,0,1,3.784-3.292,11.466,11.466,0,0,1,5.236-1.244,11.527,11.527,0,0,1,5.236,1.218,10.153,10.153,0,0,1,3.759,3.266.954.954,0,0,0,.57.363.937.937,0,0,0,.648-.156.954.954,0,0,0,.363-.57A.937.937,0,0,0,21,15.936a12.224,12.224,0,0,0-4.407-3.81A13.178,13.178,0,0,0,10.58,10.7a13.206,13.206,0,0,0-6.04,1.426A12.772,12.772,0,0,0,.16,15.988a.878.878,0,0,0-.052.907A.835.835,0,0,0,.86,17.362Z" transform="translate(-0.006 -7.926)"/>
    <path id="_031_delete_item" data-name="031_delete_item" class="cls-1" d="M.119,5.824a.5.5,0,0,0,.716,0L2.971,3.687,5.108,5.824a.508.508,0,0,0,.716-.01.493.493,0,0,0,0-.7L3.687,2.971,5.824.834a.508.508,0,0,0-.01-.716.493.493,0,0,0-.7,0L2.971,2.256.834.119a.508.508,0,0,0-.716.01.493.493,0,0,0,0,.7L2.256,2.971.119,5.108A.518.518,0,0,0,.119,5.824Z" transform="translate(25.752 -8.266) rotate(45)"/>
  </g>
</svg>
