<?xml version="1.0" encoding="utf-8"?>
<!-- Generator: Adobe Illustrator 21.1.0, SVG Export Plug-In . SVG Version: 6.00 Build 0)  -->
<svg version="1.1" id="Layer_1" xmlns="http://www.w3.org/2000/svg" xmlns:xlink="http://www.w3.org/1999/xlink" x="0px" y="0px"
	 viewBox="0 0 78 68.4" style="enable-background:new 0 0 78 68.4;" xml:space="preserve">
<style type="text/css">
	.st0{fill:#B8BABF;}
</style>
<title>59 all</title>
<path class="st0" d="M78,35.6H62.2c-1.1,0-2.2,0.6-2.7,1.6L49.1,57.8l-16.8-47C31.7,9.2,30,8.4,28.5,9c-0.7,0.3-1.3,0.8-1.7,1.5
	L14,35.6H0v6h15.8c1.1,0,2.2-0.6,2.7-1.6l10.4-20.6l16.8,47c0.4,1.1,1.4,1.9,2.6,2h0.2c1.1,0,2.2-0.6,2.7-1.6L64,41.6h14V35.6z"/>
<g>
	<path class="st0" d="M67.6,14.2v8.9h-5.1v-8.9h-9V8.9h9V0h5.1v8.9h9v5.3C76.6,14.2,67.6,14.2,67.6,14.2z"/>
</g>
</svg>
