<svg xmlns="http://www.w3.org/2000/svg" viewBox="-17711 -15052.301 30.988 31.837">
  <defs>
    <style>
      .cls-1 {
        fill: #fff;
      }
    </style>
  </defs>
  <g id="_017_add_note" data-name="017_add_note" transform="translate(-17711 -15045)">
    <path id="Path_121" data-name="Path 121" class="cls-1" d="M24,11.365,35.389,0,40.3,4.913,28.909,16.3l-5.709.717Zm1.089,3.8,3.107-.372,9.852-9.852L35.389,2.284,25.51,12.109Z" transform="translate(-17.039)"/>
    <path id="Path_122" data-name="Path 122" class="cls-1" d="M24.4,17.7l5.284-.637L40.811,5.941,36.27,1.4,25.144,12.526Zm1.753-4.674L36.27,2.914,39.3,5.941,29.18,16.058l-3.532.451Z" transform="translate(-17.921 -1.028)"/>
    <path id="Path_123" data-name="Path 123" class="cls-1" d="M0,26.3V2.4H12.082V3.993H1.593V24.706H20.712V12.278h1.593V26.3Z" transform="translate(0 -1.763)"/>
    <path id="Path_124" data-name="Path 124" class="cls-1" d="M1,26.768H22.775V13.278H21.712V25.706H2.062V4.462H12.551V3.4H1Z" transform="translate(-0.734 -2.497)"/>
    <path id="_031_delete_item" data-name="031_delete_item" class="cls-1" d="M.119,5.824a.5.5,0,0,0,.716,0L2.971,3.687,5.108,5.824a.508.508,0,0,0,.716-.01.493.493,0,0,0,0-.7L3.687,2.971,5.824.834a.508.508,0,0,0-.01-.716.493.493,0,0,0-.7,0L2.971,2.256.834.119a.508.508,0,0,0-.716.01.493.493,0,0,0,0,.7L2.256,2.971.119,5.108A.518.518,0,0,0,.119,5.824Z" transform="translate(26.752 -7.266) rotate(45)"/>
  </g>
</svg>
