<?xml version="1.0" encoding="utf-8"?>
<!-- Generator: Adobe Illustrator 21.1.0, SVG Export Plug-In . SVG Version: 6.00 Build 0)  -->
<svg version="1.1" id="Layer_1" xmlns="http://www.w3.org/2000/svg" xmlns:xlink="http://www.w3.org/1999/xlink" x="0px" y="0px"
	 viewBox="0 0 81.6 90.8" style="enable-background:new 0 0 81.6 90.8;" xml:space="preserve">
<style type="text/css">
	.st0{fill:#2B2C2B;}
</style>
<g>
	<g>
		<path class="st0" d="M15.3,13.3c0.6,0,1.1-0.1,1.6-0.4c7.3-4.1,15.4-6.1,24-6.1s15.7,1.8,24,6.1c0.5,0.3,1,0.4,1.6,0.4l0,0l0,0
			c1.3,0,2.4-0.8,3-1.9c0.4-0.8,0.5-1.7,0.2-2.6c-0.3-0.9-0.9-1.6-1.7-2C58.8,2.1,50.4,0,40.9,0c-9.6,0-18.8,2.3-27.2,6.9
			c-1.6,0.9-2.2,2.9-1.3,4.6C12.9,12.6,14,13.3,15.3,13.3z"/>
		<path class="st0" d="M40.8,38.9c10.7,0,19.4,8.2,19.4,18.2c0,1.9,1.5,3.4,3.4,3.4c1.9,0,3.4-1.5,3.4-3.4
			c0-13.8-11.7-24.9-26.1-24.9S14.8,43.4,14.8,57.1c0,7.3,1.7,14.1,4.8,19.7c3,5.5,5.2,8,9,11.9c0.6,0.7,1.5,1,2.4,1s1.7-0.3,2.5-1
			c1.3-1.3,1.3-3.4,0-4.8c-3.5-3.5-5.3-5.5-8-10.4c-2.6-4.6-3.9-10.2-3.9-16.4C21.5,47,30.1,38.9,40.8,38.9z"/>
		<path class="st0" d="M78.2,57c0-19.7-16.8-35.7-37.6-35.7c-14.7,0-28.1,8.2-34.2,21c-2.1,4.4-3.1,9.3-3.1,14.8
			c0,6.1,1.1,12.2,3.3,17.9c0.5,1.3,1.7,2.2,3.2,2.2c0.4,0,0.8-0.1,1.2-0.2c0.9-0.3,1.5-0.9,1.9-1.7c0.4-0.8,0.4-1.8,0.1-2.6
			c-2.6-6.9-2.9-12.1-2.9-15.5c0-4.4,0.8-8.4,2.5-11.8c5-10.4,16-17.1,28.1-17.1c17,0,30.8,13,30.8,28.9c0,4.1-3.6,7.4-8,7.4
			s-8-3.3-8-7.4c0-7.8-6.6-14.1-14.8-14.1c-8.1,0-14.8,6.3-14.8,14.1c0,8.9,3.6,17.6,9.9,23.9c5,4.9,9.7,7.6,16.9,9.6
			c0.3,0.1,0.6,0.1,0.9,0.1c1.5,0,2.9-1.1,3.2-2.5c0.5-1.8-0.6-3.7-2.4-4.1c-6-1.6-9.8-3.8-13.9-7.9c-5.1-5-7.9-11.8-7.9-19
			c0-4.1,3.6-7.4,8-7.4s8,3.3,8,7.4c0,7.8,6.6,14.1,14.8,14.1S78.2,64.8,78.2,57z"/>
		<path class="st0" d="M67.5,74.2c-0.2,0-0.4,0-0.6,0.1c-1.8,0.3-3.5,0.4-4.4,0.4c-4.2,0-7.6-1-10.5-2.9c-5-3.4-8-8.9-8-14.7
			c0-1.9-1.5-3.4-3.4-3.4s-3.4,1.5-3.4,3.4c0,8.1,4.1,15.7,11,20.3c4,2.7,8.8,4.1,14.3,4.1c0.6,0,2.9,0,5.5-0.5
			c0.9-0.2,1.7-0.7,2.2-1.4c0.5-0.7,0.7-1.6,0.6-2.5C70.5,75.4,69.1,74.2,67.5,74.2z"/>
		<path class="st0" d="M3.3,36.4L3.3,36.4c1.2,0,2.2-0.6,2.7-1.4c3.9-5.4,8.8-9.7,14.6-12.7c6-3.1,13-4.8,20.2-4.8
			s14.1,1.6,20.2,4.7c5.8,2.9,10.8,7.3,14.5,12.6c0.5,0.7,1.3,1.2,2.2,1.4c0.9,0.1,1.8-0.1,2.5-0.6s1.2-1.3,1.4-2.2
			c0.1-0.9-0.1-1.8-0.6-2.5c-4.5-6.3-10.2-11.2-17-14.7c-7-3.6-15-5.5-23.2-5.5c-8.3,0-16.3,1.9-23.3,5.5
			c-6.7,3.6-12.4,8.6-16.9,14.9c-0.7,1-0.8,2.4-0.2,3.5C0.9,35.7,2.1,36.4,3.3,36.4z"/>
	</g>
</g>
</svg>
