<?xml version="1.0" encoding="utf-8"?>
<!-- Generator: Adobe Illustrator 21.1.0, SVG Export Plug-In . SVG Version: 6.00 Build 0)  -->
<svg version="1.1" id="Layer_1" xmlns="http://www.w3.org/2000/svg" xmlns:xlink="http://www.w3.org/1999/xlink" x="0px" y="0px"
	 viewBox="0 0 71.6 71.7" style="enable-background:new 0 0 71.6 71.7;" xml:space="preserve">
<style type="text/css">
	.st0{fill:#2B2C2B;}
</style>
<path class="st0" d="M60.7,52.7l-8,8l9.8,9.8c-1.8,0.8-3.8,1.2-5.8,1.2c-8.3,0-15-6.7-15-15c0-2.1,0.4-4,1.2-5.8l-22-22
	C19,29.6,17.1,30,15,30C6.7,30,0,23.3,0,15c0-2.1,0.4-4,1.2-5.8L11,19l8-8L9.2,1.2C11,0.4,12.9,0,15,0c8.3,0,15,6.7,15,15
	c0,2.1-0.4,4-1.2,5.8l22,22c1.8-0.8,3.8-1.2,5.8-1.2c8.3,0,15,6.7,15,15c0,2.1-0.4,4-1.2,5.8L60.7,52.7z"/>
</svg>
