<?xml version="1.0" encoding="utf-8"?>
<!-- Generator: Adobe Illustrator 21.1.0, SVG Export Plug-In . SVG Version: 6.00 Build 0)  -->
<svg version="1.1" id="Layer_1" xmlns="http://www.w3.org/2000/svg" xmlns:xlink="http://www.w3.org/1999/xlink" x="0px" y="0px"
	 viewBox="0 0 79 73.6" style="enable-background:new 0 0 79 73.6;" xml:space="preserve">
<style type="text/css">
	.st0{fill:#7E602F;}
</style>
<title>01</title>
<g>
	<path class="st0" d="M10.3,45.6C4.6,45.6,0,50.2,0,55.9v7c-0.2,5.7,4.3,10.4,10,10.6s10.4-4.3,10.6-10c0-0.2,0-0.4,0-0.6v-7
		C20.6,50.2,16,45.6,10.3,45.6z"/>
	<path class="st0" d="M39.5,25.1c-5.7,0-10.3,4.6-10.3,10.3v27.5c-0.2,5.7,4.3,10.5,10,10.7s10.4-4.3,10.6-10c0-0.2,0-0.4,0-0.6
		V35.4C49.8,29.7,45.2,25.1,39.5,25.1z"/>
	<path class="st0" d="M68.7,0C63,0,58.4,4.6,58.4,10.3V63c-0.2,5.7,4.3,10.4,10,10.6s10.4-4.3,10.6-10c0-0.2,0-0.4,0-0.6V10.2
		C79,4.6,74.4,0,68.7,0z"/>
</g>
</svg>
