<?xml version="1.0" encoding="utf-8"?>
<!-- Generator: Adobe Illustrator 21.1.0, SVG Export Plug-In . SVG Version: 6.00 Build 0)  -->
<svg version="1.1" id="Layer_1" xmlns="http://www.w3.org/2000/svg" xmlns:xlink="http://www.w3.org/1999/xlink" x="0px" y="0px"
	 viewBox="0 0 92.1 70.1" style="enable-background:new 0 0 92.1 70.1;" xml:space="preserve">
<style type="text/css">
	.st0{fill:#2E2F2E;}
</style>
<title>arrowsArtboard 14</title>
<path class="st0" d="M6,41h65.5L52.8,59.8c-2.4,2.3-2.4,6.1-0.1,8.5c2.3,2.4,6.1,2.4,8.5,0.1c0,0,0,0,0.1-0.1l29-29
	c0.3-0.3,0.5-0.6,0.8-0.9v-0.1c0.2-0.3,0.4-0.7,0.5-1v-0.1c0.1-0.3,0.2-0.7,0.3-1v-0.1c0.1-0.4,0.1-0.7,0.2-1.1l0,0
	c0-0.4,0-0.7-0.1-1.1v-0.1c-0.1-0.3-0.2-0.7-0.3-1v-0.1c-0.1-0.3-0.3-0.7-0.5-1v-0.1c-0.2-0.3-0.5-0.6-0.8-0.9l-29-29
	c-2.4-2.3-6.2-2.3-8.5,0.1c-2.3,2.3-2.3,6.1,0,8.4L71.5,29H6c-3.3,0-6,2.7-6,6S2.7,41,6,41z"/>
</svg>
