<?xml version="1.0" encoding="utf-8"?>
<!-- Generator: Adobe Illustrator 21.1.0, SVG Export Plug-In . SVG Version: 6.00 Build 0)  -->
<svg version="1.1" id="Layer_1" xmlns="http://www.w3.org/2000/svg" xmlns:xlink="http://www.w3.org/1999/xlink" x="0px" y="0px"
	 viewBox="0 0 35.2 62.5" style="enable-background:new 0 0 35.2 62.5;" xml:space="preserve">
<style type="text/css">
	.st0{fill:#868686;}
</style>
<title>06</title>
<path class="st0" d="M3.9,0C5,0,6.1,0.5,6.8,1.3L34,28.5c1.6,1.6,1.6,4.1,0,5.6L6.8,61.3C6,62.1,5,62.5,4,62.5s-2-0.4-2.8-1.2
	c-0.8-0.8-1.2-1.9-1.2-3c0-1,0.5-2,1.2-2.7l24.4-24.3L1.1,6.8C0.3,6-0.1,5,0,3.9c0-1,0.5-2,1.2-2.7C1.9,0.5,2.9,0,3.9,0L3.9,0z"/>
<path class="st0" d="M2.6,59.9c0.8,0.8,2,0.8,2.8,0l0,0l27.2-27.2c0.8-0.8,0.8-2,0-2.8l0,0L5.4,2.7c-0.7-0.8-2-0.9-2.8-0.1
	c-0.8,0.8-0.9,2-0.1,2.8l0.1,0.1l25.8,25.8L2.6,57.1C1.8,57.8,1.8,59.1,2.6,59.9L2.6,59.9z"/>
</svg>
