<?xml version="1.0" encoding="utf-8"?>
<!-- Generator: Adobe Illustrator 21.1.0, SVG Export Plug-In . SVG Version: 6.00 Build 0)  -->
<svg version="1.1" id="Layer_1" xmlns="http://www.w3.org/2000/svg" xmlns:xlink="http://www.w3.org/1999/xlink" x="0px" y="0px"
	 viewBox="0 0 92.1 70.1" style="enable-background:new 0 0 92.1 70.1;" xml:space="preserve">
<style type="text/css">
	.st0{fill:#2E2F2E;}
</style>
<title>arrowsArtboard 14</title>
<path class="st0" d="M92.1,35c0-3.3-2.7-6-6-6H20.6l18.6-18.8c2.3-2.3,2.3-6.1,0-8.4c-2.3-2.4-6.1-2.4-8.5-0.1l-29,29
	c-0.3,0.3-0.6,0.6-0.8,0.9v0.1c-0.2,0.3-0.4,0.7-0.5,1v0.1c-0.1,0.3-0.2,0.7-0.3,1v0.1C0,34.3,0,34.6,0,35l0,0
	c0.1,0.4,0.1,0.7,0.2,1.1v0.1c0.1,0.3,0.2,0.7,0.3,1v0.1c0.1,0.3,0.3,0.7,0.5,1v0.1c0.3,0.3,0.5,0.6,0.8,0.9l29,29
	c0.1,0.1,0.1,0.1,0.1,0.1c2.4,2.3,6.2,2.3,8.5-0.1c2.3-2.4,2.3-6.2-0.1-8.5L20.6,41h65.5C89.4,41,92.1,38.3,92.1,35z"/>
</svg>
