<?xml version="1.0" encoding="utf-8"?>
<!-- Generator: Adobe Illustrator 21.1.0, SVG Export Plug-In . SVG Version: 6.00 Build 0)  -->
<svg version="1.1" id="Layer_1" xmlns="http://www.w3.org/2000/svg" xmlns:xlink="http://www.w3.org/1999/xlink" x="0px" y="0px"
	 viewBox="0 0 35.2 62.5" style="enable-background:new 0 0 35.2 62.5;" xml:space="preserve">
<style type="text/css">
	.st0{fill:#868686;}
</style>
<title>06</title>
<path class="st0" d="M31.3,62.5c-1.1,0-2.2-0.5-2.9-1.3L1.2,34c-1.6-1.6-1.6-4.1,0-5.6L28.4,1.2C29.2,0.4,30.2,0,31.2,0
	s2,0.4,2.8,1.2c0.8,0.8,1.2,1.9,1.2,3c0,1-0.5,2-1.2,2.7L9.6,31.2l24.5,24.5c0.8,0.8,1.2,1.8,1.1,2.9c0,1-0.5,2-1.2,2.7
	C33.3,62,32.3,62.5,31.3,62.5L31.3,62.5z"/>
<path class="st0" d="M32.6,2.6c-0.8-0.8-2-0.8-2.8,0l0,0L2.6,29.8c-0.8,0.8-0.8,2,0,2.8l0,0l27.2,27.2c0.7,0.8,2,0.9,2.8,0.1
	s0.9-2,0.1-2.8L32.6,57L6.8,31.2L32.6,5.4C33.4,4.7,33.4,3.4,32.6,2.6L32.6,2.6z"/>
</svg>
