<?xml version="1.0" encoding="utf-8"?>
<!-- Generator: Adobe Illustrator 21.1.0, SVG Export Plug-In . SVG Version: 6.00 Build 0)  -->
<svg version="1.1" id="Layer_1" xmlns="http://www.w3.org/2000/svg" xmlns:xlink="http://www.w3.org/1999/xlink" x="0px" y="0px"
	 viewBox="0 0 106.9 102" style="enable-background:new 0 0 106.9 102;" xml:space="preserve">
<style type="text/css">
	.st0{fill:#868686;}
	.st1{fill:#FFFFFF;}
</style>
<g>
	<path class="st0" d="M15.3,24.5c0.6,0,1.1-0.1,1.6-0.4c7.3-4.1,15.4-6.1,24-6.1c8.6,0,15.7,1.8,24,6.1c0.5,0.3,1,0.4,1.6,0.4
		c1.3,0,2.4-0.8,3-1.9c0.4-0.8,0.5-1.7,0.2-2.6c-0.3-0.9-0.9-1.6-1.7-2c-9.2-4.7-17.6-6.8-27.1-6.8c-9.6,0-18.8,2.3-27.2,6.9
		c-1.6,0.9-2.2,2.9-1.3,4.6C12.9,23.8,14,24.5,15.3,24.5z"/>
	<path class="st0" d="M25.5,84.7c-2.6-4.6-3.9-10.2-3.9-16.4c-0.1-10.1,8.5-18.2,19.2-18.2s19.4,8.2,19.4,18.2
		c0,1.9,1.5,3.4,3.4,3.4c1.9,0,3.4-1.5,3.4-3.4c0-13.8-11.7-24.9-26.1-24.9c-14.4,0-26.1,11.2-26.1,24.9c0,7.3,1.7,14.1,4.8,19.7
		c3,5.5,5.2,8,9,11.9c0.6,0.7,1.5,1,2.4,1s1.7-0.3,2.5-1c1.3-1.3,1.3-3.4,0-4.8C30,91.6,28.2,89.6,25.5,84.7z"/>
	<path class="st0" d="M40.6,32.5c-14.7,0-28.1,8.2-34.2,21c-2.1,4.4-3.1,9.3-3.1,14.8c0,6.1,1.1,12.2,3.3,17.9
		c0.5,1.3,1.7,2.2,3.2,2.2c0.4,0,0.8-0.1,1.2-0.2c0.9-0.3,1.5-0.9,1.9-1.7c0.4-0.8,0.4-1.8,0.1-2.6c-2.6-6.9-2.9-12.1-2.9-15.5
		c0-4.4,0.8-8.4,2.5-11.8c5-10.4,16-17.1,28.1-17.1c17,0,30.8,13,30.8,28.9c0,4.1-3.6,7.4-8,7.4c-4.4,0-8-3.3-8-7.4
		c0-7.8-6.6-14.1-14.8-14.1c-8.1,0-14.8,6.3-14.8,14.1c0,8.9,3.6,17.6,9.9,23.9c5,4.9,9.7,7.6,16.9,9.6c0.3,0.1,0.6,0.1,0.9,0.1
		c1.5,0,2.9-1.1,3.2-2.5c0.5-1.8-0.6-3.7-2.4-4.1c-6-1.6-9.8-3.8-13.9-7.9c-5.1-5-7.9-11.8-7.9-19c0-4.1,3.6-7.4,8-7.4
		c4.4,0,8,3.3,8,7.4c0,7.8,6.6,14.1,14.8,14.1c8.2,0,14.8-6.6,14.8-14.4C78.2,48.5,61.4,32.5,40.6,32.5z"/>
	<path class="st0" d="M67.5,85.4c-0.2,0-0.4,0-0.6,0.1c-1.8,0.3-3.5,0.4-4.4,0.4c-4.2,0-7.6-1-10.5-2.9c-5-3.4-8-8.9-8-14.7
		c0-1.9-1.5-3.4-3.4-3.4c-1.9,0-3.4,1.5-3.4,3.4c0,8.1,4.1,15.7,11,20.3c4,2.7,8.8,4.1,14.3,4.1c0.6,0,2.9,0,5.5-0.5
		c0.9-0.2,1.7-0.7,2.2-1.4s0.7-1.6,0.6-2.5C70.5,86.6,69.1,85.4,67.5,85.4z"/>
	<path class="st0" d="M81,42.1c-4.5-6.3-10.2-11.2-17-14.7c-7-3.6-15-5.5-23.2-5.5c-8.3,0-16.3,1.9-23.3,5.5
		C10.8,31,5.1,36,0.6,42.3c-0.7,1-0.8,2.4-0.2,3.5c0.5,1.1,1.7,1.8,2.9,1.8S5.5,47,6,46.2c3.9-5.4,8.8-9.7,14.6-12.7
		c6-3.1,13-4.8,20.2-4.8s14.1,1.6,20.2,4.7c5.8,2.9,10.8,7.3,14.5,12.6c0.5,0.7,1.3,1.2,2.2,1.4c0.9,0.1,1.8-0.1,2.5-0.6
		c0.7-0.5,1.2-1.3,1.4-2.2C81.7,43.7,81.5,42.8,81,42.1z"/>
</g>
<rect x="49.8" class="st0" width="57.1" height="57.1"/>
<rect x="54" y="4.2" class="st1" width="48.8" height="48.8"/>
<rect x="63.4" y="13.4" class="st0" width="29.9" height="5.6"/>
<rect x="63.4" y="25.7" class="st0" width="29.9" height="5.6"/>
<rect x="63.4" y="38" class="st0" width="29.9" height="5.6"/>
</svg>
