<svg xmlns="http://www.w3.org/2000/svg" viewBox="-17531 -14796 19.252 21.417">
  <defs>
    <style>
      .cls-1 {
        fill: #b2b5c3;
      }
    </style>
  </defs>
  <g id="_018_add_artifact" data-name="018_add_artifact" transform="translate(-17531.006 -14796)">
    <g id="Group_85" data-name="Group 85" transform="translate(0.006)">
      <path id="Path_142" data-name="Path 142" class="cls-1" d="M12.763,3.137a.692.692,0,0,0,.377-.094A11.418,11.418,0,0,1,18.8,1.6a11.549,11.549,0,0,1,5.661,1.439.692.692,0,0,0,.377.094h0a.818.818,0,0,0,.708-.448.789.789,0,0,0,.047-.613.8.8,0,0,0-.4-.472A13.45,13.45,0,0,0,18.8,0a13.234,13.234,0,0,0-6.416,1.628.8.8,0,0,0-.307,1.085A.735.735,0,0,0,12.763,3.137Z" transform="translate(-9.156 0)"/>
      <path id="Path_143" data-name="Path 143" class="cls-1" d="M20.933,33.78a4.451,4.451,0,0,1,4.576,4.293.8.8,0,1,0,1.6,0A6.015,6.015,0,0,0,20.956,32.2,6.03,6.03,0,0,0,14.8,38.073a9.608,9.608,0,0,0,1.132,4.647,10.971,10.971,0,0,0,2.123,2.807.732.732,0,0,0,.566.236.858.858,0,0,0,.59-.236.812.812,0,0,0,0-1.132,9.153,9.153,0,0,1-1.887-2.453,7.82,7.82,0,0,1-.92-3.868A4.379,4.379,0,0,1,20.933,33.78Z" transform="translate(-11.31 -24.605)"/>
      <path id="Path_144" data-name="Path 144" class="cls-1" d="M20.967,29.721A8.651,8.651,0,0,0,12.1,21.3a8.9,8.9,0,0,0-8.067,4.953A7.975,7.975,0,0,0,3.3,29.744a11.748,11.748,0,0,0,.778,4.222.8.8,0,0,0,.755.519,1.184,1.184,0,0,0,.283-.047.755.755,0,0,0,.448-.4.792.792,0,0,0,.024-.613A9.961,9.961,0,0,1,4.9,29.768a6.19,6.19,0,0,1,.59-2.783,7.32,7.32,0,0,1,6.628-4.033,7.062,7.062,0,0,1,7.265,6.817,1.893,1.893,0,0,1-3.774,0,3.406,3.406,0,0,0-3.491-3.326,3.421,3.421,0,0,0-3.491,3.326,8.022,8.022,0,0,0,2.335,5.637,8.389,8.389,0,0,0,3.986,2.264.653.653,0,0,0,.212.024.791.791,0,0,0,.189-1.557,6.593,6.593,0,0,1-3.279-1.863,6.24,6.24,0,0,1-1.863-4.482A1.821,1.821,0,0,1,12.1,28.046a1.821,1.821,0,0,1,1.887,1.745,3.406,3.406,0,0,0,3.491,3.326A3.464,3.464,0,0,0,20.967,29.721Z" transform="translate(-2.523 -16.276)"/>
      <path id="Path_145" data-name="Path 145" class="cls-1" d="M44.347,58.535a.3.3,0,0,0-.142.024,6.9,6.9,0,0,1-1.038.094,4.37,4.37,0,0,1-2.477-.684A4.22,4.22,0,0,1,38.8,54.5a.8.8,0,0,0-1.6,0,5.761,5.761,0,0,0,2.595,4.788,5.909,5.909,0,0,0,3.373.967,7.005,7.005,0,0,0,1.3-.118.868.868,0,0,0,.519-.33.852.852,0,0,0,.142-.59A.8.8,0,0,0,44.347,58.535Z" transform="translate(-28.427 -41.034)"/>
      <path id="Path_146" data-name="Path 146" class="cls-1" d="M.783,16.762h0a.748.748,0,0,0,.637-.33,9.763,9.763,0,0,1,3.444-3A10.434,10.434,0,0,1,9.628,12.3a10.489,10.489,0,0,1,4.765,1.109,9.239,9.239,0,0,1,3.42,2.972.868.868,0,0,0,.519.33.852.852,0,0,0,.59-.142.868.868,0,0,0,.33-.519.852.852,0,0,0-.142-.59A11.123,11.123,0,0,0,15.1,12a11.991,11.991,0,0,0-5.472-1.3,12.017,12.017,0,0,0-5.5,1.3A11.622,11.622,0,0,0,.146,15.512a.8.8,0,0,0-.047.826A.76.76,0,0,0,.783,16.762Z" transform="translate(-0.006 -8.176)"/>
    </g>
  </g>
</svg>
