<?xml version="1.0" encoding="utf-8"?>
<!-- Generator: Adobe Illustrator 21.1.0, SVG Export Plug-In . SVG Version: 6.00 Build 0)  -->
<svg version="1.1" id="Layer_1" xmlns="http://www.w3.org/2000/svg" xmlns:xlink="http://www.w3.org/1999/xlink" x="0px" y="0px"
	 viewBox="0 0 201.4 224.6" style="enable-background:new 0 0 201.4 224.6;" xml:space="preserve">
<style type="text/css">
	.st0{fill:#868686;}
</style>
<path class="st0" d="M92.2,154.9c-8.3-4.9-15.7-9.2-24-14c-4.7,2.7-10.6,5.9-16.3,9.6c-1.2,0.8-1.5,3.3-1.6,5.1
	c-0.2,12.7-9.3,23.7-21.1,25.2c-13.7,1.7-26.1-6.5-28.7-19.6c-2-10.1,1-19,9.3-25.2c8.7-6.6,18.5-7.4,28-1.7
	c3.6,2.1,5.8,1.6,8.7-0.3c4.6-2.9,9.4-5.6,13.9-8.2c-0.5-4.7-1.2-9.1-1.2-13.5c0-4.3,0.8-8.5,1.2-13.2c-5.3-3.1-10.9-6.7-16.8-9.7
	c-1.2-0.6-3.6,0.1-5.1,0.9C23,98.9,5.2,91.7,0.9,74.6c-2.5-10.1,0.6-18.9,8.6-25.4c7.9-6.4,17-7.5,26.2-3.3
	c9.2,4.2,14.7,11.6,14.5,21.9c-0.1,4.6,1.6,6.8,5.3,8.7c4.7,2.4,9.2,5.2,12.7,7.2c8.3-4.8,15.8-9.1,24.1-13.9
	c0-5.2,0.2-11.7-0.2-18.1c-0.1-1.5-2.1-3.3-3.7-4.3c-9-5.4-13.5-13.5-12.8-23.7C76.2,12.9,82.1,5,92.6,1.4
	c12.3-4.2,25.6,1.5,30.8,13.1c5.6,12.4,1.4,26.2-10.4,32.6c-3.2,1.7-4,3.6-3.9,6.9c0.2,5.6,0.1,11.3,0.1,15.8
	c8.2,4.7,15.7,9.1,24,13.9c4.7-2.7,10.7-6,16.3-9.7c1.1-0.7,1.4-3.4,1.4-5.2c0.2-12.2,8.1-22.2,19.8-24.8c11.2-2.5,23.2,3.5,28.2,14
	c4.6,9.8,2.3,21.7-5.7,29.2c-7.8,7.4-19.8,9.1-29.5,3.3c-3.7-2.2-6-1.7-9.2,0.3c-4.6,3-9.4,5.6-13.2,7.8c0,9.2,0,17.7,0,27.2
	c2.2,1.3,5.4,3.3,8.7,5.2c3.1,1.8,6.3,3.6,9.4,5.4c14.7-10.7,30.3-5.1,37.2,4.7c6.2,9,6.1,21.2-0.3,29.8c-6.3,8.4-18,12.1-28.1,8.8
	c-10.6-3.5-17.3-12.7-17.1-24.2c0.1-3.3-0.8-5.1-3.7-6.6c-5.3-2.7-10.4-5.8-14.4-8.1c-8.2,4.8-15.6,9.1-23.9,13.9
	c0,5.1-0.3,11.8,0.2,18.4c0.1,1.6,2.5,3.4,4.2,4.5c8.5,5.4,12.7,13.3,12.2,23c-0.6,10.4-6.1,18.1-16,22
	c-12.5,4.9-26.2-0.6-31.9-12.5c-5.8-12.3-1.4-26.3,10.7-32.9c2.8-1.5,3.7-3.1,3.6-6.1C92.1,165.4,92.2,159.6,92.2,154.9z
	 M100.6,136.8c14,0,24.6-10.4,24.7-24.3c0-14.1-10.4-24.7-24.2-24.8C87,87.7,76.2,98.2,76.2,111.8
	C76.2,126.2,86.5,136.8,100.6,136.8z M101,33.6c4.2-0.1,8.3-4.4,8.2-8.5c-0.1-4.3-4.6-8.6-8.9-8.3c-4.2,0.3-8.1,4.7-7.9,8.7
	C92.6,29.8,96.9,33.8,101,33.6z M100.6,190.9c-4.1,0.1-8.3,4.4-8.2,8.5c0.1,4.3,4.6,8.6,8.8,8.3c4.1-0.3,8.2-4.7,8-8.7
	C108.9,194.8,104.6,190.8,100.6,190.9z M33.3,155.7c0-4.8-3.3-8-8.1-7.9c-4.8,0.1-8,3.3-7.9,8.2c0,4.8,3.3,7.9,8.2,7.9
	C30.2,163.8,33.4,160.6,33.3,155.7z M176,147.8c-4.7,0-7.9,3.4-7.8,8.2c0.1,4.8,3.3,7.9,8.2,7.8c4.8-0.1,8-3.4,7.9-8.2
	C184.2,150.9,180.8,147.8,176,147.8z M176.1,60.8c-4.8,0-8.1,3.2-8,8c0,4.7,3.4,8,8.1,8c4.8,0,8-3.3,8-8.1
	C184.3,63.9,181,60.8,176.1,60.8z M33.3,68.5c-0.1-4.8-3.4-7.9-8.4-7.7c-4.6,0.2-7.7,3.3-7.7,8c0,4.8,3.3,8,8.2,8
	C30.3,76.7,33.4,73.5,33.3,68.5z"/>
</svg>
