<?xml version="1.0" encoding="utf-8"?>
<!-- Generator: Adobe Illustrator 21.1.0, SVG Export Plug-In . SVG Version: 6.00 Build 0)  -->
<svg version="1.1" id="Layer_1" xmlns="http://www.w3.org/2000/svg" xmlns:xlink="http://www.w3.org/1999/xlink" x="0px" y="0px"
	 viewBox="0 0 82 82" style="enable-background:new 0 0 82 82;" xml:space="preserve">
<style type="text/css">
	.st0{fill:#68B23B;}
</style>
<title>121all</title>
<path class="st0" d="M66.9,38.3c-5.6-5.6-14.7-5.6-20.3,0c-0.5,0.5-0.8,1-1,1.7l-3.5-3.5c0.6-0.2,1.2-0.5,1.7-1
	c5.6-5.6,5.6-14.7,0-20.3L33.3,4.7c-6.2-6.2-16.4-6.3-22.6,0l0,0l-6,6c-6.2,6.2-6.3,16.4,0,22.6l0,0l10.5,10.4
	c5.6,5.6,14.7,5.6,20.3,0c0.5-0.5,0.8-1,1-1.7l3.5,3.5c-0.6,0.2-1.2,0.5-1.7,1c-5.6,5.6-5.6,14.7,0,20.3l10.4,10.5
	c6.2,6.2,16.4,6.3,22.6,0l0,0l6-6c6.2-6.2,6.3-16.4,0-22.6l0,0L66.9,38.3z M38.1,29.8c-0.5,0.5-0.8,1-1,1.7l-3-3
	c-1.6-1.6-4.1-1.6-5.7,0c-1.6,1.6-1.6,4.1,0,5.7l3,3c-0.6,0.2-1.2,0.5-1.7,1c-2.5,2.5-6.5,2.5-9,0l0,0L10.4,27.8
	c-3.1-3.1-3.1-8.2,0-11.3l6-6c3.1-3.1,8.2-3.1,11.3,0L38.1,21C40.6,23.3,40.6,27.3,38.1,29.8z M71.6,65.7l-6,6
	c-3.1,3.1-8.2,3.1-11.3,0L44,61.2c-2.5-2.5-2.5-6.5,0-9l0,0c0.5-0.5,0.8-1,1-1.7l4,4c1.6,1.6,4.1,1.6,5.7,0c1.6-1.6,1.6-4.1,0-5.7
	l-4-4c0.6-0.2,1.2-0.5,1.7-1c2.5-2.5,6.5-2.5,9,0l0,0l10.4,10.5C74.7,57.5,74.7,62.5,71.6,65.7L71.6,65.7z"/>
</svg>
