<svg xmlns="http://www.w3.org/2000/svg" viewBox="-17532 -14668.694 18.566 21.399">
  <defs>
    <style>
      .cls-1 {
        fill: #b2b5c3;
      }
    </style>
  </defs>
  <path id="_043_attachments_menu" data-name="043_attachments_menu" class="cls-1" d="M7.269,21.4a7.171,7.171,0,0,1-5.114-2.113,7.289,7.289,0,0,1,0-10.247l7.689-7.53A5.3,5.3,0,0,1,12.969,0h.479a5.209,5.209,0,0,1,3.658,1.527,5.008,5.008,0,0,1,1.509,3.6A5.13,5.13,0,0,1,17.107,8.79l-6.926,6.748a2.977,2.977,0,0,1-2.167.906h0A3.077,3.077,0,0,1,5.83,11.206L8.263,8.773l1.421,1.421L7.446,12.5l-.178.089-.053.053a1.1,1.1,0,0,0,.8,1.865,1,1,0,0,0,.764-.32L15.7,7.352a3.162,3.162,0,0,0,0-4.4,3.213,3.213,0,0,0-2.255-.906,3.14,3.14,0,0,0-2.238.906L3.557,10.566a5.275,5.275,0,0,0,0,7.352,5.231,5.231,0,0,0,7.423,0L11,17.9l.249-.355,2.93-2.859L15.6,16.107l-3.214,3.214A7.319,7.319,0,0,1,7.269,21.4Z" transform="translate(-17532.051 -14668.694)"/>
</svg>
