<?xml version="1.0" encoding="utf-8"?>
<!-- Generator: Adobe Illustrator 21.1.0, SVG Export Plug-In . SVG Version: 6.00 Build 0)  -->
<svg version="1.1" id="Layer_1" xmlns="http://www.w3.org/2000/svg" xmlns:xlink="http://www.w3.org/1999/xlink" x="0px" y="0px"
	 viewBox="0 0 104.7 120.5" style="enable-background:new 0 0 104.7 120.5;" xml:space="preserve">
<style type="text/css">
	.st0{fill:#868686;}
</style>
<path class="st0" d="M40.7,120.5c-10.9,0-21.1-4.2-28.8-11.9c-15.8-16-15.8-41.9,0-57.7L55.2,8.5C60.1,3.7,66.3,0.7,72.8,0h2.7
	c7.7,0,15,3.1,20.6,8.6c5.5,5.4,8.5,12.6,8.5,20.3c0,7.8-3,15.1-8.5,20.6l-39,38c-3.2,3.3-7.5,5.1-12.2,5.1l0,0
	c-4.7,0-9-1.8-12.3-5.1c-3.2-3.2-5-7.6-5-12.2s1.8-9,5-12.2l13.7-13.7l8,8l-12.6,13l-1,0.5l-0.3,0.3c-2.3,2.5-2.2,6.4,0.1,8.7
	c1.3,1.2,2.8,1.8,4.4,1.8c1.7,0,3.2-0.6,4.3-1.8l39-38.5c6.7-7.3,6.7-18.1,0-24.8c-3.4-3.3-7.9-5.1-12.7-5.1s-9.3,1.8-12.6,5.1
	L19.8,59.5c-11.2,11.7-11.2,30.2,0,41.4c5.6,5.6,13,8.7,20.9,8.7s15.3-3.1,20.9-8.7l0.1-0.1l1.4-2l16.5-16.1l8,8l-18.1,18.1
	C61.8,116.3,51.5,120.5,40.7,120.5z"/>
</svg>
