<svg xmlns="http://www.w3.org/2000/svg" viewBox="-17532.727 -12743 22.314 19.791">
  <defs>
    <style>
      .cls-1 {
        fill: #b2b5c3;
      }
    </style>
  </defs>
  <g id="noun_430193_cc" transform="translate(-17762 -12766.85)">
    <path id="Path_151" data-name="Path 151" class="cls-1" d="M1.3,17.873a9.2,9.2,0,0,1,2.5-7.1,9.414,9.414,0,0,1,14.216.5L22.226,7.09a.793.793,0,0,1,1.122,1.122L11.466,20.025a.759.759,0,0,1-.572.229h0a.9.9,0,0,1-.572-.229L6.43,16.087a.774.774,0,0,1,0-1.122.794.794,0,0,1,1.122,0l3.365,3.365,5.952-5.906A7.845,7.845,0,1,0,18.4,18.445a7.042,7.042,0,0,0,.092-1.213.8.8,0,0,1,1.6,0,10.2,10.2,0,0,1-.114,1.442,9.487,9.487,0,0,1-9.34,7.967,6.433,6.433,0,0,1-.664-.023A9.49,9.49,0,0,1,1.3,17.873Z" transform="translate(228 17)"/>
  </g>
</svg>
