<?xml version="1.0" encoding="utf-8"?>
<!-- Generator: Adobe Illustrator 21.1.0, SVG Export Plug-In . SVG Version: 6.00 Build 0)  -->
<svg version="1.1" id="Layer_1" xmlns="http://www.w3.org/2000/svg" xmlns:xlink="http://www.w3.org/1999/xlink" x="0px" y="0px"
	 viewBox="0 0 87.5 90" style="enable-background:new 0 0 87.5 90;" xml:space="preserve">
<style type="text/css">
	.st0{fill:#5FAEA4;}
</style>
<g>
	<circle class="st0" cx="16.3" cy="44.3" r="5"/>
</g>
<g>
	<circle class="st0" cx="29.5" cy="44.3" r="5"/>
</g>
<g>
	<circle class="st0" cx="36.4" cy="56.9" r="5"/>
</g>
<g>
	<circle class="st0" cx="49.7" cy="56.9" r="5"/>
</g>
<g>
	<circle class="st0" cx="56" cy="68.6" r="5"/>
</g>
<g>
	<circle class="st0" cx="29.5" cy="68.6" r="5"/>
</g>
<g>
	<circle class="st0" cx="5" cy="58.6" r="5"/>
</g>
<g>
	<circle class="st0" cx="74.2" cy="71.4" r="5"/>
</g>
<g>
	<circle class="st0" cx="23.1" cy="80" r="5"/>
</g>
<g>
	<circle class="st0" cx="49.7" cy="85" r="5"/>
</g>
<g>
	<circle class="st0" cx="36.4" cy="33.1" r="5"/>
</g>
<g>
	<circle class="st0" cx="49.7" cy="33.1" r="5"/>
</g>
<g>
	<circle class="st0" cx="56" cy="21.4" r="5"/>
</g>
<g>
	<circle class="st0" cx="29.5" cy="21.4" r="5"/>
</g>
<g>
	<circle class="st0" cx="5" cy="31.4" r="5"/>
</g>
<g>
	<circle class="st0" cx="74.2" cy="18.6" r="5"/>
</g>
<g>
	<circle class="st0" cx="23.1" cy="10" r="5"/>
</g>
<g>
	<circle class="st0" cx="49.7" cy="5" r="5"/>
</g>
<g>
	<circle class="st0" cx="42.8" cy="44.3" r="5"/>
</g>
<g>
	<circle class="st0" cx="56" cy="44.3" r="5"/>
</g>
<g>
	<circle class="st0" cx="69.3" cy="44.3" r="5"/>
</g>
<g>
	<circle class="st0" cx="82.5" cy="44.3" r="5"/>
</g>
<g>
	<path class="st0" d="M42.8,59c-8.1,0-14.7-6.6-14.7-14.7s6.6-14.7,14.7-14.7s14.7,6.6,14.7,14.7S50.9,59,42.8,59z M42.8,30.9
		c-7.4,0-13.4,6-13.4,13.4s6,13.4,13.4,13.4s13.4-6,13.4-13.4C56.1,36.9,50.1,30.9,42.8,30.9z"/>
</g>
<g>
	<path class="st0" d="M42.8,71.2c-14.9,0-27-12.1-27-26.9c0-14.9,12.1-26.9,27-26.9s26.9,12.1,26.9,26.9S57.6,71.2,42.8,71.2z
		 M42.8,18.7c-14.1,0-25.6,11.5-25.6,25.6s11.5,25.6,25.6,25.6s25.6-11.5,25.6-25.6S56.9,18.7,42.8,18.7z"/>
</g>
<g>
	<path class="st0" d="M42.8,85.1C20.3,85.1,2,66.8,2,44.3S20.3,3.5,42.8,3.5s40.8,18.3,40.8,40.8S65.3,85.1,42.8,85.1z M42.8,4.8
		C21,4.8,3.3,22.5,3.3,44.3S21,83.8,42.8,83.8s39.5-17.7,39.5-39.5S64.6,4.8,42.8,4.8z"/>
</g>
</svg>
