<?xml version="1.0" encoding="utf-8"?>
<!-- Generator: Adobe Illustrator 21.1.0, SVG Export Plug-In . SVG Version: 6.00 Build 0)  -->
<svg version="1.1" id="Layer_1" xmlns="http://www.w3.org/2000/svg" xmlns:xlink="http://www.w3.org/1999/xlink" x="0px" y="0px"
	 viewBox="0 0 83.2 66.5" style="enable-background:new 0 0 83.2 66.5;" xml:space="preserve">
<style type="text/css">
	.st0{fill:#73BB43;}
</style>
<g>
	<path class="st0" d="M45.1,1.9c-1.6-2.5-5.3-2.5-7,0L0.7,60.1c-1.8,2.8,0.2,6.4,3.5,6.4h74.9c3.3,0,5.2-3.6,3.5-6.4L45.1,1.9z
		 M44.8,54c0,1.2-0.7,1.8-1.8,1.8h-1.8c-1.2,0-1.8-0.6-1.8-1.8v-1.5c0-1.2,0.6-1.8,1.8-1.8H43c1.2,0,1.8,0.7,1.8,1.8V54z M44.5,45
		c0,1.2-0.7,1.8-1.8,1.8h-1.3c-1.1,0-1.8-0.6-1.8-1.8l-0.4-18.5c0-1.2,0.6-1.9,1.8-1.9h2.1c1.2,0,1.8,0.7,1.8,1.9L44.5,45z"/>
</g>
</svg>
