<?xml version="1.0" encoding="utf-8"?>
<!-- Generator: Adobe Illustrator 21.1.0, SVG Export Plug-In . SVG Version: 6.00 Build 0)  -->
<svg version="1.1" id="Layer_1" xmlns="http://www.w3.org/2000/svg" xmlns:xlink="http://www.w3.org/1999/xlink" x="0px" y="0px"
	 viewBox="0 0 90 90" style="enable-background:new 0 0 90 90;" xml:space="preserve">
<style type="text/css">
	.st0{fill:#5CB89D;}
</style>
<path class="st0" d="M45,0v4c22.6,0,41,18.4,41,41S67.6,86,45,86S4,67.6,4,45H0c0,24.9,20.1,45,45,45s45-20.1,45-45S69.9,0,45,0z"/>
<path class="st0" d="M23.7,66.3l1.9-1.9c-10.7-10.7-10.7-28.2,0-38.9s28.2-10.7,38.9,0s10.7,28.2,0,38.9l1.9,1.9
	c11.8-11.8,11.8-30.9,0-42.7s-30.9-11.8-42.7,0S11.9,54.5,23.7,66.3z"/>
<path class="st0" d="M45,30.3v1.3c7.4,0,13.4,6,13.4,13.4s-6,13.4-13.4,13.4s-13.4-6-13.4-13.4h-1.3c0,8.1,6.6,14.7,14.7,14.7
	S59.7,53.1,59.7,45S53.1,30.3,45,30.3z"/>
</svg>
