<?xml version="1.0" encoding="utf-8"?>
<!-- Generator: Adobe Illustrator 21.1.0, SVG Export Plug-In . SVG Version: 6.00 Build 0)  -->
<svg version="1.1" id="Layer_1" xmlns="http://www.w3.org/2000/svg" xmlns:xlink="http://www.w3.org/1999/xlink" x="0px" y="0px"
	 viewBox="0 0 90 79.2" style="enable-background:new 0 0 90 79.2;" xml:space="preserve">
<style type="text/css">
	.st0{fill:none;}
	.st1{fill:#868686;}
</style>
<g>
	<circle class="st0" cx="27.6" cy="44.7" r="2.3"/>
	<path class="st0" d="M4.8,52.8c0,3.5,2.3,6.4,5.4,7.4V45.4C7.1,46.4,4.8,49.4,4.8,52.8z"/>
	<circle class="st0" cx="62.4" cy="44.7" r="2.3"/>
	<circle class="st0" cx="45" cy="9.3" r="4.6"/>
	<path class="st0" d="M65,29.4H25c-5.5,0-10.1,4.5-10.1,10.1v25c0,5.5,4.5,10.1,10.1,10.1h40c5.5,0,10.1-4.5,10.1-10.1v-25
		C75,33.9,70.5,29.4,65,29.4z M27.6,51.8c-3.9,0-7-3.2-7-7c0-3.9,3.2-7.1,7-7.1c3.9,0,7,3.2,7,7.1C34.6,48.6,31.5,51.8,27.6,51.8z
		 M51.5,66h-13c-1.3,0-2.4-1.1-2.4-2.4s1.1-2.4,2.4-2.4h13c1.3,0,2.4,1.1,2.4,2.4S52.8,66,51.5,66z M62.4,51.8c-3.9,0-7-3.2-7-7
		c0-3.9,3.2-7.1,7-7.1c3.8,0,7.1,3.2,7.1,7.1C69.5,48.6,66.3,51.8,62.4,51.8z"/>
	<path class="st0" d="M79.8,45.4v14.8c3.1-1,5.4-4,5.4-7.4C85.2,49.4,82.9,46.4,79.8,45.4z"/>
	<path class="st1" d="M79.8,40.5v-1c0-8.2-6.6-14.9-14.8-14.9H47.4v-6.3c4-1.1,6.9-4.7,6.9-9C54.3,4.2,50.1,0,45,0s-9.3,4.2-9.3,9.3
		c0,4.3,3,8,6.9,9v6.3H25c-8.2,0-14.8,6.7-14.8,14.8v1C4.4,41.6,0,46.7,0,52.8S4.4,64,10.2,65.1c0.4,7.8,6.9,14.1,14.8,14.1h40
		c7.9,0,14.4-6.3,14.8-14.1C85.6,64.1,90,59,90,52.8C90,46.7,85.6,41.6,79.8,40.5z M10.2,60.2c-3.1-1-5.4-4-5.4-7.4
		c0-3.5,2.3-6.4,5.4-7.4C10.2,45.4,10.2,60.2,10.2,60.2z M40.4,9.3c0-2.5,2-4.6,4.6-4.6c2.5,0,4.6,2,4.6,4.6s-2,4.6-4.6,4.6
		S40.4,11.8,40.4,9.3z M75,64.4c0,5.5-4.5,10.1-10.1,10.1H25c-5.5,0-10.1-4.5-10.1-10.1v-25c0-5.5,4.5-10.1,10.1-10.1h40
		c5.5,0,10.1,4.5,10.1,10.1L75,64.4L75,64.4z M79.8,60.2V45.4c3.1,1,5.4,4,5.4,7.4C85.2,56.3,82.9,59.2,79.8,60.2z"/>
	<path class="st1" d="M62.4,37.7c-3.9,0-7,3.2-7,7.1s3.2,7.1,7,7.1c3.8,0,7.1-3.2,7.1-7C69.5,40.8,66.3,37.7,62.4,37.7z M62.4,47
		c-1.3,0-2.3-1-2.3-2.3s1-2.3,2.3-2.3s2.3,1,2.3,2.3C64.7,46,63.7,47,62.4,47z"/>
	<path class="st1" d="M27.6,37.7c-3.9,0-7,3.2-7,7.1s3.2,7.1,7,7.1c3.9,0,7-3.2,7-7C34.6,40.8,31.5,37.7,27.6,37.7z M27.6,47
		c-1.3,0-2.3-1-2.3-2.3s1-2.3,2.3-2.3s2.3,1,2.3,2.3C29.8,46,28.8,47,27.6,47z"/>
</g>
<path class="st1" d="M45.1,68.3c-4.4,0-8.6-2.2-11.1-5.9c-0.2-0.3-0.3-0.6-0.4-0.9c-0.1-1.1,0.6-2.1,1.7-2.2c0.1,0,0.2,0,0.2,0
	c0.7,0,1.3,0.3,1.7,0.9c1.8,2.6,4.7,4.1,7.8,4.1s6.1-1.6,7.9-4.1c0.3-0.5,0.9-0.8,1.5-0.9h0.2c0.4,0,0.9,0.1,1.2,0.4
	c0.4,0.3,0.7,0.8,0.8,1.3s-0.1,1.1-0.4,1.5C53.7,66.1,49.5,68.3,45.1,68.3z"/>
</svg>
