<?xml version="1.0" encoding="utf-8"?>
<!-- Generator: Adobe Illustrator 21.1.0, SVG Export Plug-In . SVG Version: 6.00 Build 0)  -->
<svg version="1.1" id="Layer_1" xmlns="http://www.w3.org/2000/svg" xmlns:xlink="http://www.w3.org/1999/xlink" x="0px" y="0px"
	 viewBox="0 0 87.6 87.6" style="enable-background:new 0 0 87.6 87.6;" xml:space="preserve">
<style type="text/css">
	.st0{fill:#73BB43;}
</style>
<g transform="translate(-893 251)">
	<path class="st0" d="M936.8-251c-24.2,0-43.8,19.6-43.8,43.8s19.6,43.8,43.8,43.8s43.8-19.6,43.8-43.8S961-251,936.8-251z
		 M952.8-221.3c4.1-0.1,6.2,4.9,3.3,7.8l-21.2,21.2c-1.3,1.3-3.5,1.3-4.8,0l-10.7-10.9c-4.4-4.3,2.1-10.8,6.4-6.4l6,6
		c0.4,0.4,1.2,0.4,1.6,0l16.4-16.4C950.5-220.8,951.6-221.3,952.8-221.3L952.8-221.3z"/>
</g>
</svg>
