<svg xmlns="http://www.w3.org/2000/svg" viewBox="0 0 16.969 16.969">
  <defs>
    <style>
      .cls-1 {
        fill: #b2b5c3;
      }
    </style>
  </defs>
  <g id="noun_1451463_cc" transform="translate(1.469 55.5) rotate(90)">
    <g id="Group" transform="translate(-55.5 -15.5)">
      <path id="Compound_Path" data-name="Compound Path" class="cls-1" d="M11.7,11.7l-.2,7.823,8.947,8.947,8.022-8.022L19.522,11.5Zm8.749,14.9-7.625-7.6.154-6.016,6.016-.154,7.6,7.625Z" transform="translate(-11.5 -11.5)"/>
      <path id="Compound_Path-2" data-name="Compound Path" class="cls-1" d="M28.262,25.7a2.534,2.534,0,1,0,1.785.727,2.534,2.534,0,0,0-1.785-.727Zm.859,3.394a1.212,1.212,0,1,1,0-1.719h0a1.212,1.212,0,0,1,0,1.719Z" transform="translate(-22.599 -22.57)"/>
      <rect id="Path" class="cls-1" width="4.341" height="1.322" transform="translate(6.821 9.912) rotate(-45)"/>
      <rect id="Path-2" data-name="Path" class="cls-1" width="4.341" height="1.322" transform="translate(8.395 11.477) rotate(-45)"/>
    </g>
  </g>
</svg>
