<?xml version="1.0" encoding="utf-8"?>
<!-- Generator: Adobe Illustrator 21.1.0, SVG Export Plug-In . SVG Version: 6.00 Build 0)  -->
<svg version="1.1" id="Layer_1" xmlns="http://www.w3.org/2000/svg" xmlns:xlink="http://www.w3.org/1999/xlink" x="0px" y="0px"
	 viewBox="0 0 414.5 406.1" style="enable-background:new 0 0 414.5 406.1;" xml:space="preserve">
<style type="text/css">
	.st0{fill:#383838;}
</style>
<path class="st0" d="M338.8,333.5c11.3,18.2,22.7,36.6,34.2,55c-9.4,5.8-18.7,11.6-28.1,17.5c-10.5-16.9-21-33.7-31.5-50.6
	c-31.9,22.5-67.3,34.1-106.2,34c-38.9,0-74.2-11.5-106.1-34.1c-10.7,16.9-21.3,33.8-32,50.7c-9.4-5.9-18.7-11.8-28-17.7
	c11.6-18.4,23.2-36.7,34.6-54.9c-35.9-38.9-53.3-84.6-50.2-137.4c2.7-46.5,21.1-86.3,54.3-119c69-67.7,178.3-69.6,249.4-5
	c37.9,34.4,58.1,77.5,59.9,128.7C391,251.9,373.4,295.9,338.8,333.5z M207.3,58.1c-82.2-0.1-149,66.6-149.2,149
	c-0.2,82.2,66.7,149.2,149,149.2c82.2,0.1,148.9-66.5,149.2-149C356.6,125.2,289.7,58.3,207.3,58.1z"/>
<path class="st0" d="M29.6,118.4c-10-5-19.7-9.9-29.6-14.8C23.5,57.9,57.9,23.5,103.6,0c5,9.9,9.8,19.7,14.8,29.6
	C99.2,39.3,82,51.7,66.9,66.9C51.7,82,39.3,99.2,29.6,118.4z"/>
<path class="st0" d="M414.5,103.6c-9.9,5-19.7,9.8-29.6,14.8c-9.7-19.2-22.1-36.4-37.2-51.5c-15.1-15.1-32.3-27.5-51.5-37.2
	c5-9.9,9.8-19.7,14.8-29.6C356.5,23.5,390.9,57.9,414.5,103.6z"/>
<path class="st0" d="M190.7,223.7c0-44.2,0-88.2,0-132.3c11,0,21.9,0,33,0c0,33,0,66.1,0,99.3c22.2,0,44.2,0,66.2,0
	c0,11.1,0,22,0,33C256.9,223.7,223.9,223.7,190.7,223.7z"/>
</svg>
