<?xml version="1.0" encoding="utf-8"?>
<!-- Generator: Adobe Illustrator 21.1.0, SVG Export Plug-In . SVG Version: 6.00 Build 0)  -->
<svg version="1.1"
	 id="Layer_1" xmlns:cc="http://creativecommons.org/ns#" xmlns:dc="http://purl.org/dc/elements/1.1/" xmlns:inkscape="http://www.inkscape.org/namespaces/inkscape" xmlns:rdf="http://www.w3.org/1999/02/22-rdf-syntax-ns#" xmlns:sodipodi="http://sodipodi.sourceforge.net/DTD/sodipodi-0.dtd" xmlns:svg="http://www.w3.org/2000/svg"
	 xmlns="http://www.w3.org/2000/svg" xmlns:xlink="http://www.w3.org/1999/xlink" x="0px" y="0px" viewBox="0 0 89.1 80"
	 style="enable-background:new 0 0 89.1 80;" xml:space="preserve">
<style type="text/css">
	.st0{fill:#347B72;}
</style>
<g transform="translate(0,-952.36216)">
	<g transform="matrix(1.7505632,0,0,1.7551024,49.999983,1002.362)">
		<path class="st0" d="M-14.5-28.5l-2.6,1.5l0.5,7.8l0.6,1l3.7,3.6l-3.1,5.4l-5-1.4h-1.2l-7,3.4v3l7,3.4h1.2l5-1.4l3.1,5.4L-16,6.8
			l-0.6,1l-0.5,7.8l2.6,1.5l6.5-4.3l0.6-1l1.3-5.1h6.2l1.3,5.1l0.6,1l6.5,4.3l2.6-1.5l-0.5-7.8l-0.6-1L6,3.2l3.1-5.4l5,1.4h1.2
			l7-3.4v-3l-7-3.4h-1.2l-5,1.4L6-14.6l3.7-3.6l0.6-1l0.5-7.8l-2.6-1.5l-6.5,4.3l-0.6,1l-1.3,5.1h-6.2l-1.3-5.1l-0.6-1L-14.5-28.5z
			 M-3.1-12.8C0.8-12.8,4-9.6,4-5.7S0.8,1.4-3.1,1.4l0,0c-3.9,0-7.1-3.2-7.1-7.1l0,0C-10.2-9.6-7-12.8-3.1-12.8z"/>
	</g>
</g>
</svg>
