<?xml version="1.0" encoding="utf-8"?>
<!-- Generator: Adobe Illustrator 21.1.0, SVG Export Plug-In . SVG Version: 6.00 Build 0)  -->
<svg version="1.1" id="Layer_1" xmlns="http://www.w3.org/2000/svg" xmlns:xlink="http://www.w3.org/1999/xlink" x="0px" y="0px"
	 viewBox="0 0 75.2 68.9" style="enable-background:new 0 0 75.2 68.9;" xml:space="preserve">
<style type="text/css">
	.st0{fill:#7EC8AA;}
</style>
<path class="st0" d="M53.3,68.9c-1.7,0-3.1-1.4-3.1-3.1v-4.7c0-1.7,1.4-3.1,3.1-3.1s3.1,1.4,3.1,3.1v4.7
	C56.4,67.5,55,68.9,53.3,68.9z"/>
<path class="st0" d="M53.3,36c-1.7,0-3.1-1.4-3.1-3.1v-4.7c0-1.7,1.4-3.1,3.1-3.1s3.1,1.4,3.1,3.1v4.7C56.4,34.6,55,36,53.3,36z"/>
<path class="st0" d="M72.1,50.1h-4.7c-1.7,0-3.1-1.4-3.1-3.1c0-1.7,1.4-3.1,3.1-3.1h4.7c1.7,0,3.1,1.4,3.1,3.1
	C75.3,48.7,73.9,50.1,72.1,50.1z"/>
<path class="st0" d="M39.2,50.1h-4.7c-1.7,0-3.1-1.4-3.1-3.1c0-1.7,1.4-3.1,3.1-3.1h4.7c1.7,0,3.1,1.4,3.1,3.1
	C42.3,48.7,40.9,50.1,39.2,50.1z"/>
<path class="st0" d="M66.6,63.4c-0.8,0-1.6-0.3-2.2-0.9l-3.3-3.3c-1.3-1.3-1.3-3.3,0-4.4c1.3-1.3,3.3-1.3,4.4,0l3.3,3.3
	c1.3,1.3,1.3,3.3,0,4.4C68.2,63.1,67.4,63.4,66.6,63.4z"/>
<path class="st0" d="M43.2,40c-0.8,0-1.6-0.3-2.2-0.9l-3.3-3.3c-1.3-1.3-1.3-3.1,0-4.4c1.3-1.3,3.3-1.3,4.4,0l3.3,3.3
	c1.3,1.3,1.3,3.3,0,4.4C45,39.7,44.2,40,43.2,40z"/>
<path class="st0" d="M63.3,40c-0.8,0-1.6-0.3-2.2-0.9c-1.3-1.3-1.3-3.3,0-4.4l3.3-3.3c1.3-1.3,3.3-1.3,4.4,0c1.3,1.3,1.3,3.3,0,4.4
	l-3.3,3.3C64.9,39.7,64.1,40,63.3,40z"/>
<path class="st0" d="M40,63.4c-0.8,0-1.6-0.3-2.2-0.9c-1.3-1.3-1.3-3.1,0-4.4l3.3-3.3c1.3-1.3,3.1-1.3,4.4,0s1.3,3.1,0,4.4l-3.3,3.3
	C41.5,63.1,40.7,63.4,40,63.4z"/>
<path class="st0" d="M53.3,64.2c-9.6,0-17.3-7.7-17.3-17.3s7.7-17.3,17.3-17.3S70.6,37.4,70.6,47S62.9,64.2,53.3,64.2z M53.3,36
	c-6.1,0-11,4.9-11,11s4.9,11,11,11s11-4.9,11-11S59.4,36,53.3,36z"/>
<path class="st0" d="M15.6,68.9c-1.7,0-3.1-1.4-3.1-3.1v-3.1c0-1.7,1.4-3.1,3.1-3.1s3.1,1.4,3.1,3.1v3.1
	C18.8,67.5,17.4,68.9,15.6,68.9z"/>
<path class="st0" d="M15.6,47c-1.7,0-3.1-1.4-3.1-3.1v-3.1c0-1.7,1.4-3.1,3.1-3.1s3.1,1.4,3.1,3.1v3.1C18.8,45.5,17.4,47,15.6,47z"
	/>
<path class="st0" d="M28.2,56.4h-3.1c-1.7,0-3.1-1.4-3.1-3.1s1.4-3.1,3.1-3.1h3.1c1.7,0,3.1,1.4,3.1,3.1S29.9,56.4,28.2,56.4z"/>
<path class="st0" d="M6.2,56.4H3.1C1.4,56.4,0,55,0,53.3s1.4-3.1,3.1-3.1h3.1c1.7,0,3.1,1.4,3.1,3.1S7.9,56.4,6.2,56.4z"/>
<path class="st0" d="M24.6,65.3c-0.8,0-1.6-0.3-2.2-0.9l-2.2-2.2c-1.3-1.3-1.3-3.1,0-4.4s3.1-1.3,4.4,0l2.2,2.2
	c1.3,1.3,1.3,3.3,0,4.4C26.1,65,25.4,65.3,24.6,65.3z"/>
<path class="st0" d="M9,49.8c-0.8,0-1.6-0.3-2.2-0.9l-2.2-2.3c-1.3-1.3-1.3-3.1,0-4.4s3.1-1.3,4.4,0l2.2,2.2c1.3,1.3,1.3,3.1,0,4.4
	C10.6,49.5,9.8,49.8,9,49.8z"/>
<path class="st0" d="M22.2,49.8c-0.8,0-1.6-0.3-2.2-0.9c-1.3-1.3-1.3-3.1,0-4.4l2.2-2.2c1.3-1.3,3.1-1.3,4.4,0s1.3,3.1,0,4.4
	l-2.2,2.2C23.9,49.5,23.2,49.8,22.2,49.8z"/>
<path class="st0" d="M6.7,65.3c-0.8,0-1.6-0.3-2.2-0.9c-1.3-1.3-1.3-3.1,0-4.4l2.2-2.2c1.3-1.3,3.1-1.3,4.4,0s1.3,3.1,0,4.4
	l-2.2,2.2C8.4,65,7.6,65.3,6.7,65.3z"/>
<path class="st0" d="M15.6,65.8C8.7,65.8,3,60.2,3,53.2s5.7-12.5,12.6-12.5s12.6,5.6,12.6,12.6S22.5,65.8,15.6,65.8z M15.6,47
	c-3.5,0-6.3,2.8-6.3,6.3c0,3.5,2.8,6.3,6.3,6.3s6.3-2.8,6.3-6.3S19.1,47,15.6,47z"/>
<path class="st0" d="M34.5,31.3c-1.7,0-3.1-1.4-3.1-3.1v-3.1c0-1.7,1.4-3.1,3.1-3.1s3.1,1.4,3.1,3.1v3.1
	C37.6,29.8,36.2,31.3,34.5,31.3z"/>
<path class="st0" d="M34.5,9.3c-1.7,0-3.1-1.4-3.1-3.1V3.1c0-1.7,1.4-3.1,3.1-3.1s3.1,1.4,3.1,3.1v3.1C37.6,7.9,36.2,9.3,34.5,9.3z"
	/>
<path class="st0" d="M47,18.7h-3.1c-1.7,0-3.1-1.4-3.1-3.1s1.4-3.1,3.1-3.1H47c1.7,0,3.1,1.4,3.1,3.1C50.2,17.3,48.7,18.7,47,18.7z"
	/>
<path class="st0" d="M25,18.7h-3.1c-1.7,0-3.1-1.4-3.1-3.1s1.4-3.1,3.1-3.1H25c1.7,0,3.1,1.4,3.1,3.1C28.2,17.3,26.8,18.7,25,18.7z"
	/>
<path class="st0" d="M43.4,27.7c-0.8,0-1.6-0.3-2.2-0.9L39,24.6c-1.3-1.3-1.3-3.1,0-4.4c1.3-1.3,3.1-1.3,4.4,0l2.2,2.2
	c1.3,1.3,1.3,3.3,0,4.4C45,27.3,44.2,27.7,43.4,27.7z"/>
<path class="st0" d="M27.9,12.1c-0.8,0-1.6-0.3-2.2-0.9L23.5,9c-1.3-1.3-1.3-3.1,0-4.4s3.1-1.3,4.4,0l2.2,2.2c1.3,1.3,1.3,3.1,0,4.4
	C29.4,11.8,28.7,12.1,27.9,12.1z"/>
<path class="st0" d="M41.1,12.1c-0.8,0-1.6-0.3-2.2-0.9c-1.3-1.3-1.3-3.1,0-4.4l2.2-2.2c1.3-1.3,3.1-1.3,4.4,0s1.3,3.1,0,4.4
	l-2.2,2.2C42.8,11.8,42,12.1,41.1,12.1z"/>
<path class="st0" d="M25.5,27.7c-0.8,0-1.6-0.3-2.2-0.9c-1.3-1.3-1.3-3.1,0-4.4l2.2-2.2c1.3-1.3,3.1-1.3,4.4,0
	c1.3,1.3,1.3,3.1,0,4.4l-2.2,2.2C27.2,27.3,26.5,27.7,25.5,27.7z"/>
<path class="st0" d="M34.5,28.1c-6.9,0-12.6-5.6-12.6-12.6S27.6,3,34.5,3s12.6,5.7,12.6,12.6S41.4,28.1,34.5,28.1z M34.5,9.3
	c-3.5,0-6.3,2.8-6.3,6.3s2.8,6.3,6.3,6.3s6.3-2.8,6.3-6.3S37.9,9.3,34.5,9.3z"/>
</svg>
