<svg xmlns="http://www.w3.org/2000/svg" viewBox="-18828 -15121 18.258 16">
  <defs>
    <style>
      .cls-1 {
        fill: #b2b5c3;
      }
    </style>
  </defs>
  <path id="v3" class="cls-1" d="M15.11,6.22a4.34,4.34,0,0,1-3.4,5.113,7.249,7.249,0,0,0-.867-9.244A7.4,7.4,0,0,0,8.172.4,8.918,8.918,0,0,1,6.779,6.951a6.712,6.712,0,0,0-.434,6.779A7.581,7.581,0,0,1,4.155,4.965,8.263,8.263,0,0,0,1.895,16.4h.936a6.908,6.908,0,0,1,.228-4.725,6.282,6.282,0,0,0,3.994,4.7H8.628A4.584,4.584,0,0,0,8.149,15.1a4.425,4.425,0,0,1,.936-5.524,3.226,3.226,0,0,1,1.369-.616,5.943,5.943,0,0,0,.046,3.926,4.607,4.607,0,0,1-.183,3.492h2.146a3.236,3.236,0,0,1,1.917-3.652,3.27,3.27,0,0,0,1.757-1.735,3.228,3.228,0,0,1-.89,4.474,4.169,4.169,0,0,0-.981.913h3.789A8.207,8.207,0,0,0,15.11,6.22Z" transform="translate(-18828.504 -15121.4)"/>
</svg>
