<?xml version="1.0" encoding="utf-8"?>
<!-- Generator: Adobe Illustrator 21.1.0, SVG Export Plug-In . SVG Version: 6.00 Build 0)  -->
<svg version="1.1" id="Layer_1" xmlns="http://www.w3.org/2000/svg" xmlns:xlink="http://www.w3.org/1999/xlink" x="0px" y="0px"
	 viewBox="0 0 509.8 534.8" style="enable-background:new 0 0 509.8 534.8;" xml:space="preserve">
<style type="text/css">
	.st0{fill:#7EC60C;}
	.st1{fill:#383838;}
</style>
<g transform="translate(0,-952.36218)">
	<path class="st0" d="M445.2,1186.5l-133.3,138.7l-55.3-51.1l-51.7,56.1l82.8,76.4l27.5,25.3l25.9-26.9l159.2-165.6L445.2,1186.5z"
		/>
</g>
<path class="st1" d="M448,104.5c0-14.4-4.5-27.5-13.2-39c-13.5-17.8-32-28.9-52.1-37.6C348.9,13.3,313.2,6.4,276.8,2.8
	C223.9-2.6,171.3-0.3,119.3,11C90.5,17.2,62.8,26.3,38,42.8C13,59.5-0.7,81.6,0,113c1.1,47.5,0.3,95,0.3,142.5
	c0,49.8,0,99.7,0.1,149.5c0,5.5,0.5,11,1.6,16.3c3.9,18.4,15.2,31.9,29.7,43C51,479.1,73.2,488,96.3,494.8
	c34.9,10.2,70.6,14.9,106.8,16.3c25.9,1,51.5,0.3,77-2.4V477c-30.9,3.7-61.9,4.1-93,1.7c-38-2.8-75.3-9.1-110.5-24.6
	C65,449,54.1,442.7,44.8,433.8c-8.5-8.2-13.3-17.9-12.9-30.2c0.5-18.1,0.1-36.3,0.1-55.3c35.8,30.4,78.5,39.8,122.2,46.3
	c11.9,1.8,23.9,3.1,35.9,3.9v-15.8c0,0,0,0-0.1,0c-40.9-2.9-81-9.4-118.5-27c-11.1-5.2-21.4-11.6-29.7-20.8
	c-6.6-7.3-10.2-15.7-10-25.8c0.3-17,0.1-34,0.1-51c0-1.7,0-3.5,0-6.2c3.6,3,6.3,5.4,9.1,7.6c18.8,14.5,40.5,22.8,63.1,28.9
	c45.8,12.5,92.6,16.3,140,14.5c12-0.5,24-1.3,35.9-2.6v-15.7c-0.1,0-0.2,0-0.4,0c-29.9,3.4-59.8,4.1-89.8,1.9
	c-40.7-2.9-80.7-9.3-118-26.8c-11.1-5.2-21.4-11.6-29.8-20.6c-6.8-7.4-10.5-15.9-10.3-26.2c0.3-17.1,0.1-34.3,0.1-50.9
	c13.3,6.7,26,14,39.4,19.7c28.4,12,58.4,18,88.9,21.7c31.5,3.9,63.1,5.1,94.7,3c47.1-3.1,93.3-10.3,136.3-31.1
	c8.3-4,16.1-9.2,24.7-14.1c0.1,1.5,0.3,3.1,0.3,4.6c0,14.3-0.2,3.6,0,17.9H448C448,149.2,448,139.3,448,104.5z M409.8,122.6
	c-7.2,10-17.1,16.7-27.8,22.4c-23.5,12.5-48.8,19.2-74.8,23.9c-39.7,7.2-79.8,8.8-119.9,5.8c-38.1-2.9-75.7-9.1-111-24.8
	c-14.2-6.3-27.7-14-37.3-26.8c-9.4-12.5-9.6-26.4,0.1-38.6c4.1-5.2,9-9.9,14.3-13.7c18-13.2,38.8-20.4,60.1-26
	c36.3-9.6,73.3-13.1,116.8-13.2c37.1,0.3,79.6,4.6,120.9,18.1c17.5,5.7,34.3,12.9,48.5,24.9c3.7,3.1,7,6.7,9.9,10.5
	C418.6,97.1,418.5,110.5,409.8,122.6z"/>
</svg>
