<?xml version="1.0" encoding="utf-8"?>
<!-- Generator: Adobe Illustrator 21.1.0, SVG Export Plug-In . SVG Version: 6.00 Build 0)  -->
<svg version="1.1"
	 id="Layer_1" xmlns:cc="http://creativecommons.org/ns#" xmlns:dc="http://purl.org/dc/elements/1.1/" xmlns:inkscape="http://www.inkscape.org/namespaces/inkscape" xmlns:rdf="http://www.w3.org/1999/02/22-rdf-syntax-ns#" xmlns:sodipodi="http://sodipodi.sourceforge.net/DTD/sodipodi-0.dtd" xmlns:svg="http://www.w3.org/2000/svg"
	 xmlns="http://www.w3.org/2000/svg" xmlns:xlink="http://www.w3.org/1999/xlink" x="0px" y="0px" viewBox="0 0 73.9 80.1"
	 style="enable-background:new 0 0 73.9 80.1;" xml:space="preserve">
<style type="text/css">
	.st0{fill:#383838;}
</style>
<g transform="translate(0,-952.36218)">
	<path class="st0" d="M36.6,952.4c-0.3,0-0.6,0.1-0.8,0.2l-34,14c-1.1,0.5-1.8,1.6-1.8,2.8v46c0,1.2,0.7,2.3,1.8,2.8l34,14
		c0.7,0.3,1.6,0.3,2.3,0l34-14c1.1-0.5,1.8-1.5,1.8-2.8v-46c0-1.2-0.7-2.3-1.8-2.8l-34-14C37.6,952.4,37.1,952.3,36.6,952.4
		L36.6,952.4z M36.9,958.6L63,969.4l-26.1,10.7l-26.1-10.8L36.9,958.6z M5.9,973.8l28,11.5v39.5l-28-11.5V973.8L5.9,973.8z
		 M67.9,973.8v39.5l-28,11.5v-39.5L67.9,973.8L67.9,973.8z"/>
</g>
</svg>
