<?xml version="1.0" encoding="utf-8"?>
<!-- Generator: Adobe Illustrator 21.1.0, SVG Export Plug-In . SVG Version: 6.00 Build 0)  -->
<svg version="1.1" id="Layer_1" xmlns="http://www.w3.org/2000/svg" xmlns:xlink="http://www.w3.org/1999/xlink" x="0px" y="0px"
	 viewBox="0 0 59.4 59.5" style="enable-background:new 0 0 59.4 59.5;" xml:space="preserve">
<style type="text/css">
	.st0{fill:#979797;}
</style>
<title>10</title>
<path class="st0" d="M1.4,58c2,2,5.1,2,7.1,0l21.2-21.2L50.9,58c2,1.9,5.2,1.9,7.1-0.1c1.9-1.9,1.9-5,0-6.9L36.8,29.7L58,8.5
	c1.9-2,1.9-5.2-0.1-7.1c-1.9-1.9-5-1.9-6.9,0L29.7,22.6L8.5,1.4c-2-1.9-5.2-1.9-7.1,0.1c-1.9,1.9-1.9,5,0,6.9l21.2,21.3L1.4,50.9
	C-0.5,52.9-0.5,56,1.4,58z"/>
</svg>
