<?xml version="1.0" encoding="utf-8"?>
<!-- Generator: Adobe Illustrator 21.1.0, SVG Export Plug-In . SVG Version: 6.00 Build 0)  -->
<svg version="1.1" id="Layer_1" xmlns="http://www.w3.org/2000/svg" xmlns:xlink="http://www.w3.org/1999/xlink" x="0px" y="0px"
	 viewBox="0 0 68.2 72.5" style="enable-background:new 0 0 68.2 72.5;" xml:space="preserve">
<style type="text/css">
	.st0{fill:#E2181C;}
</style>
<g>
	<path class="st0" d="M54.8,65.9L54.8,65.9L54.8,65.9c-0.1,0.9-0.9,1.6-2,1.6H15.3c-1,0-1.9-0.7-2-1.5l0,0l0,0L9.8,20.3h-5l3.6,46
		c0.2,3.5,3.3,6.2,6.9,6.2h37.6c3.7,0,6.7-2.7,6.9-6.2l3.6-46h-5L54.8,65.9z"/>
	<path class="st0" d="M66,5H48.4l-0.6-3.4C47.6,0.7,46.9,0,46,0H22.4c-0.9,0-1.6,0.7-1.8,1.6L20.1,5H2.2C1,5,0,6,0,7.2v7.9
		c0,1.2,1,2.2,2.2,2.2H66c1.2,0,2.2-1,2.2-2.2V7.2C68.2,6,67.2,5,66,5z"/>
	<path class="st0" d="M22,54.7c0.7,0.7,1.7,1.1,2.7,1.1s2-0.4,2.7-1.1l6.7-6.7l6.7,6.7c0.7,0.7,1.7,1.1,2.7,1.1s2-0.4,2.7-1.1
		c1.5-1.5,1.5-3.9,0-5.4l-6.7-6.7l6.7-6.7c1.5-1.5,1.5-3.9,0-5.4s-3.9-1.5-5.4,0l-6.7,6.7l-6.7-6.7c-1.5-1.5-3.9-1.5-5.4,0
		s-1.5,3.9,0,5.4l6.7,6.7L22,49.3C20.5,50.8,20.5,53.2,22,54.7z"/>
</g>
</svg>
