<?xml version="1.0" encoding="utf-8"?>
<!-- Generator: Adobe Illustrator 21.1.0, SVG Export Plug-In . SVG Version: 6.00 Build 0)  -->
<svg version="1.1" id="Layer_1" xmlns="http://www.w3.org/2000/svg" xmlns:xlink="http://www.w3.org/1999/xlink" x="0px" y="0px"
	 viewBox="0 0 73.2 73.2" style="enable-background:new 0 0 73.2 73.2;" xml:space="preserve">
<style type="text/css">
	.st0{fill:#383838;}
</style>
<g>
	<path class="st0" d="M36.6,73.2c20.2,0,36.6-16.4,36.6-36.6S56.8,0,36.6,0S0,16.4,0,36.6S16.4,73.2,36.6,73.2z M36.6,6
		c16.9,0,30.6,13.7,30.6,30.6S53.5,67.2,36.6,67.2S6,53.5,6,36.6S19.7,6,36.6,6z"/>
	<path class="st0" d="M36.5,55.6c1.7,0,3-1.3,3-3v-19c0-1.7-1.3-3-3-3c-1.7,0-3,1.3-3,3v19C33.5,54.3,34.9,55.6,36.5,55.6z"/>
	<path class="st0" d="M36.5,25.6c1.7,0,3-1.3,3-3v-3c0-1.7-1.3-3-3-3c-1.7,0-3,1.3-3,3v3C33.5,24.3,34.9,25.6,36.5,25.6z"/>
</g>
</svg>
