<?xml version="1.0" encoding="utf-8"?>
<!-- Generator: Adobe Illustrator 21.1.0, SVG Export Plug-In . SVG Version: 6.00 Build 0)  -->
<svg version="1.1" id="Layer_1" xmlns="http://www.w3.org/2000/svg" xmlns:xlink="http://www.w3.org/1999/xlink" x="0px" y="0px"
	 viewBox="0 0 742.4 727.5" style="enable-background:new 0 0 742.4 727.5;" xml:space="preserve">
<style type="text/css">
	.st0{fill:#383838;}
</style>
<g>
	<path class="st0" d="M607,597.4c20.4,32.8,40.7,65.5,61.3,98.6c-16.8,10.4-33.4,20.8-50.4,31.3c-18.8-30.2-37.5-60.3-56.4-90.7
		c-57.1,40.3-120.5,61-190.3,61c-69.7,0-133-20.6-190.3-61.1c-19.1,30.2-38.1,60.5-57.3,90.9c-16.8-10.6-33.4-21-50.2-31.7
		c20.8-33,41.4-65.7,62-98.4c-64.7-70.3-96-152.8-89.7-248.2c5.8-87.8,42.1-161.8,107.3-220.7c128.5-116,324.9-111.4,447.8,10.7
		c62.9,62.5,95.5,138.9,96.7,227.6C698.7,455.7,667.3,532.2,607,597.4z M371.1,638.4c147.5,0.1,267.3-119.7,267.3-267.2
		c0-147.4-119.5-267-267.1-267.1C224,103.9,104,223.8,104.1,371.3C104.1,518.7,223.7,638.3,371.1,638.4z"/>
	<path class="st0" d="M53,212.1c-17.9-8.9-35.3-17.6-53-26.5c20.2-40.2,46.1-76,77.8-107.7C109.4,46.2,145.2,20.3,185.6,0
		c8.8,17.6,17.5,35.1,26.5,53c-34.4,17.4-65.3,39.6-92.4,66.8C92.5,146.9,70.3,177.7,53,212.1z"/>
	<path class="st0" d="M530.4,52.9C539.3,35.1,548,17.6,556.8,0c40.6,20.4,76.7,46.6,108.5,78.6c31.3,31.5,57,67.1,77.1,107
		c-17.7,8.8-35.1,17.6-52.9,26.4C653.5,142,600.5,89,530.4,52.9z"/>
	<path class="st0" d="M341.7,400.7c0-79.1,0-158.1,0-237.1c19.7,0,39.2,0,59.1,0c0,59.2,0,118.4,0,177.9c39.7,0,79.1,0,118.7,0
		c0,19.9,0,39.4,0,59.2C460.3,400.7,401.1,400.7,341.7,400.7z"/>
</g>
</svg>
