<?xml version="1.0" encoding="utf-8"?>
<!-- Generator: Adobe Illustrator 21.1.0, SVG Export Plug-In . SVG Version: 6.00 Build 0)  -->
<svg version="1.1" id="Layer_1" xmlns="http://www.w3.org/2000/svg" xmlns:xlink="http://www.w3.org/1999/xlink" x="0px" y="0px"
	 viewBox="0 0 83.2 66.5" style="enable-background:new 0 0 83.2 66.5;" xml:space="preserve">
<style type="text/css">
	.st0{fill:#73BF8C;}
</style>
<g>
	<path class="st0" d="M45.1,1.9C44.3,0.6,43,0,41.6,0c-1.3,0-2.7,0.6-3.5,1.9L0.7,60.1c-1.8,2.8,0.2,6.4,3.5,6.4h74.9
		c3.3,0,5.2-3.6,3.5-6.4L45.1,1.9z M80,62.9c-0.1,0.2-0.4,0.6-1,0.6H4.2c-0.6,0-0.9-0.4-1-0.6s-0.3-0.7,0-1.2L40.7,3.5
		C41,3,41.4,3,41.7,3c0.2,0,0.7,0.1,1,0.5l37.4,58.2C80.3,62.3,80.2,62.7,80,62.9z"/>
	<polygon class="st0" points="42.3,46.9 43.3,26 39.2,26 40.2,46.9 	"/>
	<path class="st0" d="M41.2,50.1c-1.6,0-2.4,0.9-2.4,2.7c0,0.9,0.2,1.6,0.7,2c0.4,0.4,1,0.6,1.7,0.6c0.8,0,1.3-0.2,1.8-0.7
		s0.6-1.1,0.6-2s-0.2-1.5-0.6-2C42.5,50.3,42,50.1,41.2,50.1z"/>
</g>
</svg>
