<?xml version="1.0" encoding="utf-8"?>
<!-- Generator: Adobe Illustrator 21.1.0, SVG Export Plug-In . SVG Version: 6.00 Build 0)  -->
<svg version="1.1" id="Layer_1" xmlns="http://www.w3.org/2000/svg" xmlns:xlink="http://www.w3.org/1999/xlink" x="0px" y="0px"
	 viewBox="0 0 54 54" style="enable-background:new 0 0 54 54;" xml:space="preserve">
<style type="text/css">
	.st0{fill:#B8BABF;}
</style>
<title>Upload s25.3</title>
<desc>Created with Sketch.</desc>
<g>
	<g>
		<path class="st0" d="M27,54c-1.7,0-3-1.3-3-3s1.3-3,3-3c11.6,0,21-9.4,21-21S38.6,6,27,6S6,15.4,6,27c0,1.7-1.3,3-3,3s-3-1.3-3-3
			C0,12.1,12.1,0,27,0s27,12.1,27,27S41.9,54,27,54z M14.3,42.8c-0.8,0-1.5-0.3-2.1-0.9c-1.2-1.2-1.2-3,0-4.2l14.4-14.4h-9.7
			c-2,0-3-1.5-3-3s1-3,3-3l16.5-0.1c0,0,0.1,0,0.2,0c1.8,0,3.2,1.5,3.2,3.4l-0.1,16.6c0,2-1.5,3-3,3s-3-1-3-3v-9.7L16.4,41.9
			C15.8,42.5,15.1,42.8,14.3,42.8z"/>
		<path class="st0" d="M27,53c-1.1,0-2-0.9-2-2s0.9-2,2-2c12.2,0,22-9.8,22-22S39.2,5,27,5S5,14.8,5,27c0,1.1-0.9,2-2,2s-2-0.9-2-2
			C1,12.6,12.6,1,27,1s26,11.6,26,26S41.3,53,27,53z M35.8,20.6l-0.1,16.6c0,2.7-4,2.7-4,0V26.1c0-0.5-0.3-0.7-0.7-0.3L15.7,41.2
			c-0.8,0.8-2,0.8-2.8,0s-0.8-2,0-2.8L28.3,23c0.4-0.4,0.3-0.7-0.3-0.7H16.9c-2.7,0-2.7-4,0-4l16.5-0.1
			C34.7,18.1,35.8,19.2,35.8,20.6z"/>
	</g>
</g>
</svg>
