<?xml version="1.0" encoding="utf-8"?>
<!-- Generator: Adobe Illustrator 21.1.0, SVG Export Plug-In . SVG Version: 6.00 Build 0)  -->
<svg version="1.1" id="Layer_1" xmlns="http://www.w3.org/2000/svg" xmlns:xlink="http://www.w3.org/1999/xlink" x="0px" y="0px"
	 viewBox="0 0 87.6 81.5" style="enable-background:new 0 0 87.6 81.5;" xml:space="preserve">
<style type="text/css">
	.st0{fill:#96C976;}
</style>
<path class="st0" d="M5.7,25.3c-0.5,0-1-0.2-1.4-0.6C1.5,21.9,0,18.3,0,14.4S1.5,6.8,4.3,4.1c5.5-5.5,15.1-5.5,20.7,0
	c0.8,0.8,0.8,2,0,2.8s-2,0.8-2.8,0c-4-4-11-4-15,0c-2,2-3.1,4.7-3.1,7.5s1.1,5.5,3.1,7.5c0.8,0.8,0.8,2,0,2.8
	C6.8,25.1,6.2,25.3,5.7,25.3z"/>
<path class="st0" d="M43.8,77C24.2,77,8.2,61,8.2,41.4s16-35.6,35.6-35.6s35.6,16,35.6,35.6S63.4,77,43.8,77z M43.8,9.8
	C26.4,9.8,12.2,24,12.2,41.4S26.4,73,43.8,73s31.6-14.2,31.6-31.6S61.2,9.8,43.8,9.8z"/>
<path class="st0" d="M81.9,25.3c-0.5,0-1-0.2-1.4-0.6c-0.8-0.8-0.8-2,0-2.8c2-2,3.1-4.7,3.1-7.5s-1.1-5.5-3.1-7.5c-4-4-11-4-15,0
	c-0.8,0.8-2.1,0.8-2.8,0c-0.8-0.8-0.8-2,0-2.8c5.5-5.5,15.1-5.5,20.6,0c2.8,2.8,4.3,6.4,4.3,10.3s-1.5,7.6-4.3,10.3
	C82.9,25.1,82.4,25.3,81.9,25.3z"/>
<path class="st0" d="M43.8,37.5c-1.1,0-2-0.9-2-2v-20c0-1.1,0.9-2,2-2s2,0.9,2,2v20C45.8,36.6,44.9,37.5,43.8,37.5z"/>
<path class="st0" d="M45.8,41.5c-0.5,0-1-0.2-1.4-0.6c-0.8-0.8-0.8-2,0-2.8l12-12c0.8-0.8,2-0.8,2.8,0s0.8,2.1,0,2.8l-12,12
	C46.8,41.3,46.3,41.5,45.8,41.5z"/>
<path class="st0" d="M48,41.4c0,2.3-1.9,4.2-4.2,4.2s-4.2-1.9-4.2-4.2s1.9-4.2,4.2-4.2S48,39.1,48,41.4z"/>
<path class="st0" d="M43.8,47.6c-3.4,0-6.2-2.8-6.2-6.2s2.8-6.2,6.2-6.2S50,38,50,41.4C50,44.8,47.2,47.6,43.8,47.6z M43.8,39.2
	c-1.2,0-2.2,1-2.2,2.2s1,2.2,2.2,2.2s2.2-1,2.2-2.2S45,39.2,43.8,39.2z"/>
<path class="st0" d="M21.8,81.5c-0.3,0-0.6-0.1-0.9-0.2c-1-0.5-1.4-1.7-0.9-2.7l4-8c0.5-1,1.7-1.4,2.7-0.9s1.4,1.7,0.9,2.7l-4,8
	C23.2,81.1,22.5,81.5,21.8,81.5z"/>
<path class="st0" d="M65.8,81.5c-0.7,0-1.4-0.4-1.8-1.1l-4-8c-0.5-1-0.1-2.2,0.9-2.7s2.2-0.1,2.7,0.9l4,8c0.5,1,0.1,2.2-0.9,2.7
	C66.4,81.4,66.1,81.5,65.8,81.5z"/>
</svg>
