<?xml version="1.0" encoding="utf-8"?>
<!-- Generator: Adobe Illustrator 21.1.0, SVG Export Plug-In . SVG Version: 6.00 Build 0)  -->
<svg version="1.1" id="Layer_1" xmlns="http://www.w3.org/2000/svg" xmlns:xlink="http://www.w3.org/1999/xlink" x="0px" y="0px"
	 viewBox="0 0 78.3 89.9" style="enable-background:new 0 0 78.3 89.9;" xml:space="preserve">
<style type="text/css">
	.st0{fill:#868686;}
	.st1{font-family:'Lato-Black';}
	.st2{font-size:36.6639px;}
</style>
<title>exe</title>
<g>
	<path class="st0" d="M76.2,20.3L60.1,2.8C58.5,1,56.3,0,53.9,0H8.4C3.7,0,0,3.8,0,8.4v73.1c0,4.7,3.8,8.4,8.4,8.4h61.5
		c4.7,0,8.4-3.8,8.4-8.4V26C78.4,23.9,77.6,21.9,76.2,20.3z M70.9,22.9H60.5c-1.6,0-2.8-1.3-2.8-2.8l0,0V8.4L70.9,22.9z M70,84.4
		H8.4c-1.6,0-2.8-1.3-2.8-2.8V8.4c0-1.6,1.3-2.8,2.8-2.8H52V20c0,4.7,3.8,8.4,8.4,8.4h12.3v53.1C72.8,83.1,71.5,84.4,70,84.4z"/>
</g>
<text transform="matrix(1 0 0 1 20.657 62.0137)" class="st0 st1 st2">JS</text>
</svg>
