<?xml version="1.0" encoding="utf-8"?>
<!-- Generator: Adobe Illustrator 21.1.0, SVG Export Plug-In . SVG Version: 6.00 Build 0)  -->
<svg version="1.1" id="Layer_1" xmlns="http://www.w3.org/2000/svg" xmlns:xlink="http://www.w3.org/1999/xlink" x="0px" y="0px"
	 viewBox="0 0 78.3 89.9" style="enable-background:new 0 0 78.3 89.9;" xml:space="preserve">
<style type="text/css">
	.st0{fill:#868686;}
</style>
<title>exe</title>
<g>
	<path class="st0" d="M76.2,20.3L60.1,2.8C58.5,1,56.3,0,53.9,0H8.4C3.7,0,0,3.8,0,8.4v73.1c0,4.7,3.8,8.4,8.4,8.4h61.5
		c4.7,0,8.4-3.8,8.4-8.4V26C78.4,23.9,77.6,21.9,76.2,20.3z M70.9,22.9H60.5c-1.6,0-2.8-1.3-2.8-2.8l0,0V8.4L70.9,22.9z M70,84.4
		H8.4c-1.6,0-2.8-1.3-2.8-2.8V8.4c0-1.6,1.3-2.8,2.8-2.8H52V20c0,4.7,3.8,8.4,8.4,8.4h12.3v53.1C72.8,83.1,71.5,84.4,70,84.4z"/>
</g>
<g>
	<path class="st0" d="M62.6,50.4l-9.5-9.5c-0.9-0.9-2.4-0.9-3.4,0s-0.9,2.4,0,3.4l7.8,7.8l-7.8,7.8c-0.9,0.9-0.9,2.4,0,3.4
		c0.7,0.7,2.5,0.8,3.4,0l9.5-9.5C63.5,52.8,63.5,51.3,62.6,50.4z"/>
	<path class="st0" d="M29.4,40.9C28.5,40,27,40,26,40.9l-9.5,9.5c-0.9,0.9-0.9,2.4,0,3.4l9.5,9.5c0.8,0.8,2.6,0.7,3.4,0
		c0.9-0.9,0.9-2.4,0-3.4l-7.8-7.8l7.8-7.8C30.3,43.3,30.3,41.8,29.4,40.9z"/>
	<path class="st0" d="M46.2,30.8c-1.3-0.4-2.6,0.3-3,1.6L31.3,70.3c-0.4,1.3,0.3,2.6,1.6,3c1.4,0.4,2.7-0.5,3-1.6l11.9-37.9
		C48.1,32.5,47.4,31.2,46.2,30.8z"/>
</g>
</svg>
