<?xml version="1.0" encoding="utf-8"?>
<!-- Generator: Adobe Illustrator 21.1.0, SVG Export Plug-In . SVG Version: 6.00 Build 0)  -->
<svg version="1.1" id="Layer_1" xmlns="http://www.w3.org/2000/svg" xmlns:xlink="http://www.w3.org/1999/xlink" x="0px" y="0px"
	 viewBox="0 0 72.9 64.1" style="enable-background:new 0 0 72.9 64.1;" xml:space="preserve">
<style type="text/css">
	.st0{fill:#979797;}
</style>
<path class="st0" d="M19,26.5c4.5,0,8.2-3.7,8.2-8.2s-3.7-8.2-8.2-8.2s-8.2,3.7-8.2,8.2C10.9,22.8,14.5,26.5,19,26.5z M19,13.8
	c2.5,0,4.5,2,4.5,4.5s-2,4.5-4.5,4.5s-4.5-2-4.5-4.5C14.6,15.8,16.6,13.8,19,13.8z M68,0H4.8C2.2,0,0,2.1,0,4.8v54.5
	c0,2.6,2.1,4.8,4.8,4.8h63.3c2.6,0,4.8-2.1,4.8-4.8V4.8C72.8,2.2,70.7,0,68,0z M69.1,51.8H14.4l11.4-15.2l7.2,6.7
	c0.4,0.4,0.9,0.5,1.5,0.5c0.5-0.1,1-0.3,1.3-0.8L54,17.1L69.1,34C69.1,34,69.1,51.8,69.1,51.8z M4.8,3.7h63.3c0.6,0,1.1,0.5,1.1,1.1
	v23.5L55.3,12.8c-0.4-0.4-0.9-0.6-1.5-0.6s-1.1,0.3-1.4,0.8L34,39.1l-7.2-6.6c-0.4-0.4-0.9-0.5-1.4-0.5s-1,0.3-1.3,0.7l-14.3,19H3.7
	v-47C3.7,4.2,4.2,3.7,4.8,3.7z M68,60.4H4.8c-0.6,0-1.1-0.5-1.1-1.1v-3.8h65.4v3.8C69.1,59.9,68.6,60.4,68,60.4z"/>
</svg>
