<?xml version="1.0" encoding="utf-8"?>
<!-- Generator: Adobe Illustrator 21.1.0, SVG Export Plug-In . SVG Version: 6.00 Build 0)  -->
<svg version="1.1" id="Layer_1" xmlns="http://www.w3.org/2000/svg" xmlns:xlink="http://www.w3.org/1999/xlink" x="0px" y="0px"
	 viewBox="0 0 78.3 89.9" style="enable-background:new 0 0 78.3 89.9;" xml:space="preserve">
<style type="text/css">
	.st0{fill:#E2181C;}
</style>
<title>exe</title>
<g>
	<path class="st0" d="M28.7,55.5h-6.8c-0.5,0-0.9-0.4-0.9-0.9v-3c0-0.5,0.4-0.9,0.9-0.9h5.3c0.5,0,0.9-0.4,0.9-0.9v-2.1
		c0-0.5-0.4-0.9-0.9-0.9h-5.3c-0.5,0-0.9-0.4-0.9-0.9v-2.3c0-0.5,0.4-0.9,0.9-0.9h6.5c0.5,0,0.9-0.4,0.9-0.9v-2.1
		c0-0.5-0.4-0.9-0.9-0.9H17.1c-0.5,0-0.9,0.4-0.9,0.9v19.1c0,0.5,0.4,0.9,0.9,0.9h11.6c0.5,0,0.9-0.4,0.9-0.9v-2.1
		C29.6,56,29.2,55.5,28.7,55.5L28.7,55.5z"/>
	<path class="st0" d="M42.4,49.4c-0.1-0.3-0.1-0.6,0-0.9l4.5-8.6c0.2-0.5,0.1-1-0.4-1.3c-0.1-0.1-0.3-0.1-0.4-0.1h-2.9
		c-0.4,0-0.7,0.2-0.9,0.6l-1.4,3.4L40.2,44c-0.2,0.5-0.5,1.2-0.7,1.8h-0.1L38.6,44c-0.2-0.5-0.5-1.1-0.7-1.6L36.3,39
		c-0.2-0.3-0.5-0.5-0.8-0.5h-3.1c-0.5,0-0.9,0.4-0.9,0.9c0,0.2,0,0.3,0.1,0.5l4.5,8.4c0.1,0.3,0.1,0.6,0,0.9l-4.8,9
		c-0.2,0.5-0.1,1,0.4,1.3c0.1,0.1,0.3,0.1,0.4,0.1H35c0.4,0,0.7-0.2,0.8-0.6l1.7-3.7c0.2-0.6,0.5-1.1,0.7-1.7
		c0.2-0.6,0.5-1.1,0.7-1.8H39c0.3,0.6,0.6,1.2,0.8,1.8l0.8,1.7l1.8,3.7c0.2,0.3,0.5,0.5,0.8,0.5h3.1c0.5,0,0.9-0.4,0.9-1
		c0-0.1,0-0.3-0.1-0.4L42.4,49.4z"/>
	<path class="st0" d="M62.1,55.5h-6.9c-0.5,0-0.9-0.4-0.9-0.9v-3c0-0.5,0.4-0.9,0.9-0.9h5.3c0.5,0,0.9-0.4,0.9-0.9v-2.1
		c0-0.5-0.4-0.9-0.9-0.9l0,0h-5.3c-0.5,0-0.9-0.4-0.9-0.9l0,0v-2.3c0-0.5,0.4-0.9,0.9-0.9h6.5c0.5,0,0.9-0.4,0.9-0.9l0,0v-2.1
		c0-0.5-0.4-0.9-0.9-0.9l0,0H50.5c-0.5,0-0.9,0.4-0.9,0.9v19.1c0,0.5,0.4,0.9,0.9,0.9h11.6c0.5,0,0.9-0.4,0.9-0.9v-2.1
		C63,56,62.6,55.5,62.1,55.5z"/>
	<path class="st0" d="M76.2,20.3L60.1,2.8C58.5,1,56.3,0,53.9,0H8.4C3.7,0,0,3.8,0,8.4v73.1c0,4.7,3.8,8.4,8.4,8.4h61.5
		c4.7,0,8.4-3.8,8.4-8.4V26C78.4,23.9,77.6,21.9,76.2,20.3z M70.9,22.9H60.5c-1.6,0-2.8-1.3-2.8-2.8l0,0V8.4L70.9,22.9z M70,84.4
		H8.4c-1.6,0-2.8-1.3-2.8-2.8V8.4c0-1.6,1.3-2.8,2.8-2.8H52V20c0,4.7,3.8,8.4,8.4,8.4h12.3v53.1C72.8,83.1,71.5,84.4,70,84.4z"/>
</g>
</svg>
