<?xml version="1.0" encoding="utf-8"?>
<!-- Generator: Adobe Illustrator 21.1.0, SVG Export Plug-In . SVG Version: 6.00 Build 0)  -->
<svg version="1.1" id="Layer_1" xmlns="http://www.w3.org/2000/svg" xmlns:xlink="http://www.w3.org/1999/xlink" x="0px" y="0px"
	 viewBox="0 0 78.3 89.9" style="enable-background:new 0 0 78.3 89.9;" xml:space="preserve">
<style type="text/css">
	.st0{fill:#868686;}
</style>
<title>exe</title>
<g>
	<path class="st0" d="M76.2,20.3L60.1,2.8C58.5,1,56.3,0,53.9,0H8.4C3.7,0,0,3.8,0,8.4v73.1c0,4.7,3.8,8.4,8.4,8.4h61.5
		c4.7,0,8.4-3.8,8.4-8.4V26C78.4,23.9,77.6,21.9,76.2,20.3z M70.9,22.9H60.5c-1.6,0-2.8-1.3-2.8-2.8l0,0V8.4L70.9,22.9z M70,84.4
		H8.4c-1.6,0-2.8-1.3-2.8-2.8V8.4c0-1.6,1.3-2.8,2.8-2.8H52V20c0,4.7,3.8,8.4,8.4,8.4h12.3v53.1C72.8,83.1,71.5,84.4,70,84.4z"/>
</g>
<path class="st0" d="M62.3,56.1c-1.2,0.3-2.9,0.4-4.7,0.1c-2-0.3-4-0.9-6-1.8c3.5-0.5,6.3-0.4,8.6,0.5
	C60.8,55.1,61.7,55.7,62.3,56.1 M42.6,52.9c-0.1,0-0.3,0.1-0.4,0.1c-1,0.3-1.9,0.5-2.8,0.7L38.2,54c-2.4,0.6-4.9,1.2-7.3,2
	c0.9-2.2,1.8-4.5,2.6-6.7c0.6-1.6,1.3-3.3,1.9-5c0.3,0.6,0.7,1.1,1,1.7C38.1,48.5,40.2,50.9,42.6,52.9 M36.4,27.7
	c0.2,2.8-0.4,5.4-1.3,8c-1.1-3.2-1.6-6.6-0.2-9.4c0.3-0.7,0.6-1.1,0.8-1.3C36,25.3,36.4,26.3,36.4,27.7 M23.8,62.6
	c-0.6,1.1-1.2,2.1-1.9,3.1c-1.5,2.3-4,4.8-5.3,4.8c-0.1,0-0.3,0-0.5-0.3c-0.1-0.2-0.2-0.3-0.2-0.4c0-0.8,1.2-2.4,2.8-3.8
	C20.3,64.8,21.9,63.6,23.8,62.6 M66.4,56.3c-0.2-2.8-4.9-4.6-5-4.6c-1.8-0.7-3.8-1-6.1-1c-2.4,0-5,0.4-8.4,1.1
	c-3-2.1-5.6-4.8-7.5-7.7c-0.9-1.3-1.6-2.6-2.3-3.9c1.6-3.9,3.1-8.1,2.8-12.8c-0.2-3.8-1.9-6.3-4.2-6.3c-1.6,0-2.9,1.2-4,3.5
	c-2,4.1-1.5,9.4,1.5,15.7c-1,2.6-2,5.2-3,7.8c-1.2,3.2-2.5,6.4-3.9,9.5c-3.9,1.6-7.2,3.4-9.9,5.8c-1.8,1.5-3.9,3.8-4,6.3
	c-0.1,1.1,0.3,2.2,1.1,3c0.8,0.9,1.9,1.4,3.1,1.4c3.8,0,7.6-5.3,8.3-6.3c1.4-2.1,2.7-4.5,4-7.2c3.3-1.2,6.7-2.1,10.1-2.9l1.2-0.3
	c0.9-0.2,1.9-0.5,2.8-0.8c1-0.3,2.1-0.6,3.2-0.8C49.7,58,53.4,59.4,57,60c3.1,0.4,5.8,0.2,7.6-0.8C66.3,58.1,66.4,56.8,66.4,56.3"/>
</svg>
