<?xml version="1.0" encoding="utf-8"?>
<!-- Generator: Adobe Illustrator 21.1.0, SVG Export Plug-In . SVG Version: 6.00 Build 0)  -->
<svg version="1.1" id="Layer_1" xmlns="http://www.w3.org/2000/svg" xmlns:xlink="http://www.w3.org/1999/xlink" x="0px" y="0px"
	 viewBox="0 0 43.7 43.8" style="enable-background:new 0 0 43.7 43.8;" xml:space="preserve">
<style type="text/css">
	.st0{fill:#68B23B;}
</style>
<g>
	<path class="st0" d="M43.4,39.1L32.9,28.6c-0.2-0.2-0.4-0.3-0.7-0.3s-0.5,0.1-0.7,0.3l-0.8,0.8l-1.9-1.9c2.6-2.9,4.2-6.8,4.2-11
		C33,7.4,25.6,0,16.5,0S0,7.4,0,16.5S7.4,33,16.5,33c4.2,0,8.1-1.6,11-4.2l1.9,1.9l-0.8,0.8c-0.4,0.4-0.4,1,0,1.4L39,43.5
		c0.2,0.2,0.4,0.3,0.7,0.3s0.5-0.1,0.7-0.3l3-3C43.8,40.1,43.8,39.5,43.4,39.1L43.4,39.1z M1.8,16.6C1.8,8.6,8.3,2,16.4,2
		S31,8.5,31,16.6s-6.5,14.6-14.6,14.6S1.8,24.6,1.8,16.6L1.8,16.6z M39.6,41.5l-9.1-9.2l1.7-1.7l9.1,9.1L39.6,41.5L39.6,41.5z"/>
</g>
</svg>
