<?xml version="1.0" encoding="utf-8"?>
<!-- Generator: Adobe Illustrator 21.1.0, SVG Export Plug-In . SVG Version: 6.00 Build 0)  -->
<svg version="1.1" id="Layer_1" xmlns="http://www.w3.org/2000/svg" xmlns:xlink="http://www.w3.org/1999/xlink" x="0px" y="0px"
	 viewBox="0 0 79 91.5" style="enable-background:new 0 0 79 91.5;" xml:space="preserve">
<style type="text/css">
	.st0{fill:#868686;}
</style>
<g>
	<path class="st0" d="M10.4,91.5C4.7,91.5,0,87.1,0,81.7V9.8C0,4.4,4.6,0,10.4,0h35.4c5.7,0,10.4,4.4,10.4,9.8
		c0,1.9-1.6,3.5-3.5,3.5s-3.5-1.6-3.5-3.5c0-1.5-1.5-2.8-3.4-2.8H10.4C8.6,7,7,8.2,7,9.8v71.9c0,1.5,1.5,2.8,3.4,2.8h35.4
		c1.8,0,3.4-1.2,3.4-2.8c0-1.9,1.6-3.5,3.5-3.5c1.9,0,3.5,1.6,3.5,3.5c0,5.4-4.6,9.8-10.4,9.8C45.8,91.5,10.4,91.5,10.4,91.5z"/>
	<path class="st0" d="M52.7,80.2c-0.8,0-1.5,0.7-1.5,1.5c0,2.6-2.4,4.8-5.4,4.8H10.4c-3,0-5.4-2.1-5.4-4.8V9.8C5,7.2,7.4,5,10.4,5
		h35.4c3,0,5.4,2.1,5.4,4.8c0,0.8,0.7,1.5,1.5,1.5c0.8,0,1.5-0.7,1.5-1.5c0-4.3-3.7-7.8-8.4-7.8H10.4C5.8,2,2,5.5,2,9.8v71.9
		c0,4.3,3.7,7.8,8.4,7.8h35.4c4.6,0,8.4-3.5,8.4-7.8C54.2,80.9,53.5,80.2,52.7,80.2z"/>
	<path class="st0" d="M46.1,67.7c-0.8,0-1.6-0.3-2.2-0.8L20.6,48.4L20.3,48l-0.2-0.2L20,47.7l-0.2-0.3h0c0,0-0.1-0.1-0.1-0.2
		c0-0.1-0.1-0.2-0.1-0.3l-0.1-0.2v-0.2l-0.1-0.3v-0.3v-0.2c0-0.1,0-0.1,0-0.2v-0.2v-0.2l0.1-0.3v-0.1c0-0.1,0-0.1,0.1-0.2
		c0-0.1,0.1-0.1,0.1-0.2l0.1-0.2l0.2-0.4l0.2-0.3l0.1-0.1c0-0.1,0.1-0.1,0.2-0.2l0,0c0,0,0.1-0.1,0.2-0.1l23.2-18.4
		c0.6-0.5,1.4-0.8,2.2-0.8c1.1,0,2.1,0.5,2.7,1.3c1.2,1.5,0.9,3.7-0.6,4.9L32.9,42.3h42.6c1.9,0,3.5,1.6,3.5,3.5s-1.6,3.5-3.5,3.5
		H32.9l15.4,12.2c1.5,1.2,1.8,3.4,0.6,4.9C48.2,67.2,47.2,67.7,46.1,67.7z"/>
	<path class="st0" d="M75.5,44.3H27.2l19.9-15.8c0.6-0.5,0.8-1.5,0.2-2.1c-0.5-0.6-1.5-0.8-2.1-0.2L21.9,44.6l0,0c0,0,0,0-0.1,0.1
		l-0.1,0.1c0,0,0,0-0.1,0.1l0,0l0,0c0,0,0,0.1-0.1,0.1v0.1c0,0,0,0,0,0.1v0.1v0.1v0.1v0.1v0.1v0.1c0,0,0,0,0,0.1s0,0,0,0.1v0.1v0.1
		v0.1v0.1v0.1v0.1c0,0,0,0,0,0.1v0.1c0,0,0,0.1,0.1,0.1l0,0l0,0c0,0,0,0,0.1,0.1l0.1,0.1c0,0,0,0,0.1,0.1l0,0l0,0l23.3,18.2
		c0.3,0.2,0.6,0.3,0.9,0.3c0.4,0,0.9-0.2,1.2-0.6c0.5-0.6,0.4-1.6-0.2-2.1L27.2,47.3h48.3c0.8,0,1.5-0.7,1.5-1.5
		S76.3,44.3,75.5,44.3z"/>
</g>
</svg>
