<?xml version="1.0" encoding="utf-8"?>
<!-- Generator: Adobe Illustrator 21.1.0, SVG Export Plug-In . SVG Version: 6.00 Build 0)  -->
<svg version="1.1" id="Layer_1" xmlns="http://www.w3.org/2000/svg" xmlns:xlink="http://www.w3.org/1999/xlink" x="0px" y="0px"
	 viewBox="0 0 75.4 76.5" style="enable-background:new 0 0 75.4 76.5;" xml:space="preserve">
<style type="text/css">
	.st0{fill:#383838;}
</style>
<g>
	<path class="st0" d="M15.9,76.5c-1.9-0.4-3.1-2.3-2.7-4.3l3-14.1H3.6c-2,0-3.6-1.6-3.6-3.6s1.6-3.6,3.6-3.6h13.8L23,23.7H8.5
		c-2,0-3.6-1.6-3.6-3.6s1.6-3.6,3.6-3.6h16L27.3,3c0.4-1.7,1.9-2.9,3.5-2.9h0.9c1.1,0.2,1.7,0.9,2.1,1.4c0.4,0.7,0.7,1.7,0.5,2.6
		l-2.5,12.2h20.9l3-13.4C56.1,1.2,57.6,0,59.2,0h0.9c0.8,0.1,1.5,0.6,2.2,1.4C62.7,2.1,63,3.1,62.8,4l-2.6,12.1h11.6
		c2,0,3.6,1.6,3.6,3.6s-1.6,3.6-3.6,3.6H58.6L53,50.5h13.8c2,0,3.6,1.6,3.6,3.6s-1.6,3.6-3.6,3.6H51.4l-3.3,15.7
		c-0.4,1.8-1.8,3-3.6,3h-0.8c-1-0.2-1.7-0.9-2.1-1.4c-0.4-0.7-0.7-1.7-0.5-2.6l3-14.4H23.2L20,73.6c-0.4,1.7-1.9,2.9-3.5,2.9
		C16.5,76.5,15.9,76.5,15.9,76.5z M24.7,50.6h20.8l5.6-27.2H30.4L24.7,50.6z"/>
</g>
</svg>
