<?xml version="1.0" encoding="utf-8"?>
<!-- Generator: Adobe Illustrator 21.1.0, SVG Export Plug-In . SVG Version: 6.00 Build 0)  -->
<svg version="1.1" id="Layer_1" xmlns="http://www.w3.org/2000/svg" xmlns:xlink="http://www.w3.org/1999/xlink" x="0px" y="0px"
	 viewBox="0 0 69.6 69.6" style="enable-background:new 0 0 69.6 69.6;" xml:space="preserve">
<style type="text/css">
	.st0{fill:#383838;}
</style>
<path class="st0" d="M67.7,40.2L29.4,1.9C28.2,0.7,26.6,0,24.9,0s-3.3,0.7-4.5,1.9l-4.3,4.3c-0.5,0.5-0.7,1.1-0.7,1.8
	c0,0.7,0.3,1.3,0.7,1.8c0.8,0.8,1.3,1.9,1.3,3.1s-0.5,2.3-1.3,3.1c-0.8,0.8-1.9,1.3-3.1,1.3s-2.3-0.5-3.1-1.3
	c-0.5-0.5-1.1-0.7-1.8-0.7c-0.7,0-1.3,0.3-1.8,0.7l-4.4,4.4c-2.5,2.5-2.5,6.5,0,9l38.3,38.3c1.2,1.2,2.8,1.9,4.5,1.9
	c1.7,0,3.3-0.7,4.5-1.9l4.4-4.4c0.5-0.5,0.7-1.1,0.7-1.8c0-0.7-0.3-1.3-0.7-1.8c-0.8-0.8-1.3-1.9-1.3-3.1s0.5-2.3,1.3-3.1
	c0.8-0.8,1.9-1.3,3.1-1.3s2.3,0.5,3.1,1.3c0.5,0.5,1.1,0.7,1.8,0.7s1.3-0.3,1.8-0.7l4.3-4.3C70.2,46.7,70.2,42.7,67.7,40.2z
	 M5.5,23.9L8.4,21c1.4,0.8,3,1.2,4.6,1.2c2.5,0,4.9-1,6.6-2.7c1.8-1.8,2.7-4.1,2.7-6.6c0-1.6-0.4-3.2-1.2-4.6l2.8-2.8
	c0.5-0.5,1.4-0.5,1.9,0l9,9L14.4,34.8l-9-9C4.9,25.3,4.9,24.4,5.5,23.9z M64.1,45.7l-2.8,2.8c-1.4-0.8-3-1.2-4.6-1.2
	c-2.5,0-4.9,1-6.6,2.7c-1.8,1.8-2.7,4.1-2.7,6.6c0,1.6,0.4,3.2,1.2,4.6l-2.9,2.9c-0.5,0.5-1.4,0.5-1.9,0L18,38.4L38.4,18l25.7,25.8
	C64.7,44.3,64.7,45.2,64.1,45.7z"/>
</svg>
