<?xml version="1.0" encoding="utf-8"?>
<!-- Generator: Adobe Illustrator 21.1.0, SVG Export Plug-In . SVG Version: 6.00 Build 0)  -->
<svg version="1.1"
	 id="Layer_1" xmlns:cc="http://creativecommons.org/ns#" xmlns:dc="http://purl.org/dc/elements/1.1/" xmlns:inkscape="http://www.inkscape.org/namespaces/inkscape" xmlns:rdf="http://www.w3.org/1999/02/22-rdf-syntax-ns#" xmlns:sodipodi="http://sodipodi.sourceforge.net/DTD/sodipodi-0.dtd" xmlns:svg="http://www.w3.org/2000/svg"
	 xmlns="http://www.w3.org/2000/svg" xmlns:xlink="http://www.w3.org/1999/xlink" x="0px" y="0px" viewBox="0 0 79 79"
	 style="enable-background:new 0 0 79 79;" xml:space="preserve">
<style type="text/css">
	.st0{fill:#FFFFFF;stroke:#CCCCCC;stroke-miterlimit:10;}
	.st1{fill:#828282;}
</style>
<circle class="st0" cx="39.5" cy="39.5" r="39"/>
<path class="st1" d="M19.1,34.6c2.9,0,5.1,2.3,5.1,5.2s-2.3,5.2-5.1,5.2S14,42.6,14,39.8S16.3,34.6,19.1,34.6z M28.8,21.6
	c2,2,2,5.3,0,7.3s-5.3,2-7.3,0s-2-5.3,0-7.3S26.8,19.6,28.8,21.6z M44.9,19.1c0,2.9-2.3,5.1-5.2,5.1s-5.2-2.3-5.2-5.1
	s2.3-5.1,5.2-5.1S44.9,16.3,44.9,19.1z M57.9,28.8c-2,2-5.3,2-7.3,0s-2-5.3,0-7.3s5.3-2,7.3,0C59.9,23.6,59.9,26.8,57.9,28.8z
	 M60.3,44.9c-2.9,0-5.1-2.3-5.1-5.2s2.3-5.2,5.1-5.2c2.9,0,5.2,2.3,5.2,5.2S63.2,44.9,60.3,44.9z M50.7,57.9c-2-2-2-5.3,0-7.3
	s5.3-2,7.3,0s2,5.3,0,7.3C55.9,59.9,52.7,59.9,50.7,57.9z M34.6,60.3c0-2.9,2.3-5.1,5.2-5.1s5.2,2.3,5.2,5.1c0,2.9-2.3,5.2-5.2,5.2
	S34.6,63.2,34.6,60.3z M21.6,50.7c2-2,5.3-2,7.3,0s2,5.3,0,7.3s-5.3,2-7.3,0C19.6,55.9,19.6,52.7,21.6,50.7z"/>
</svg>
