<?xml version="1.0" encoding="utf-8"?>
<!-- Generator: Adobe Illustrator 21.1.0, SVG Export Plug-In . SVG Version: 6.00 Build 0)  -->
<svg version="1.1" id="Layer_1" xmlns="http://www.w3.org/2000/svg" xmlns:xlink="http://www.w3.org/1999/xlink" x="0px" y="0px"
	 viewBox="0 0 76.8 76.8" style="enable-background:new 0 0 76.8 76.8;" xml:space="preserve">
<style type="text/css">
	.st0{fill:#383838;}
</style>
<path class="st0" d="M49,22.5L49,22.5L22.5,49l0,0c-1.5,1.5-1.5,3.8,0,5.3s3.8,1.5,5.3,0l0,0l26.5-26.5c1.5-1.5,1.5-3.8,0-5.3
	C52.8,21,50.5,21,49,22.5z"/>
<path class="st0" d="M38.4,6.6c-5.9,5.9-7.8,14.2-5.8,21.7l6.8-6.8c0.2-3.5,1.7-7,4.3-9.6c5.9-5.9,15.4-5.9,21.2,0
	c5.9,5.9,5.9,15.4,0,21.2C60,38,52.4,38.8,46.7,35.4l-5.4,5.4c8.8,6.3,21,5.5,28.9-2.4c8.8-8.8,8.8-23,0-31.8S47.2-2.2,38.4,6.6z"/>
<path class="st0" d="M38.4,70.2c5.9-5.9,7.8-14.2,5.8-21.7l-6.8,6.8c-0.2,3.5-1.7,7-4.3,9.6c-5.9,5.9-15.4,5.9-21.2,0
	C6,59,6,49.5,11.9,43.7c4.9-4.9,12.5-5.7,18.2-2.3l5.4-5.4c-8.8-6.3-21-5.5-28.9,2.4c-8.8,8.8-8.8,23,0,31.8S29.6,79,38.4,70.2z"/>
</svg>
