<?xml version="1.0" encoding="utf-8"?>
<!-- Generator: Adobe Illustrator 21.1.0, SVG Export Plug-In . SVG Version: 6.00 Build 0)  -->
<svg version="1.1" id="Layer_1" xmlns="http://www.w3.org/2000/svg" xmlns:xlink="http://www.w3.org/1999/xlink" x="0px" y="0px"
	 viewBox="0 0 78 69.8" style="enable-background:new 0 0 78 69.8;" xml:space="preserve">
<style type="text/css">
	.st0{fill:#B8BABF;}
</style>
<title>59 all</title>
<path class="st0" d="M78,37H62.2c-1.1,0-2.2,0.6-2.7,1.6L49.1,59.2l-16.8-47c-0.6-1.6-2.3-2.4-3.8-1.8c-0.7,0.3-1.3,0.8-1.7,1.5
	L14,37H0v6h15.8c1.1,0,2.2-0.6,2.7-1.6l10.4-20.6l16.8,47c0.4,1.1,1.4,1.9,2.6,2h0.2c1.1,0,2.2-0.6,2.7-1.6L64,43h14V37z"/>
<polygon class="st0" points="54.3,12 77,12 65.7,23.4 "/>
<rect x="63.1" class="st0" width="5.2" height="14"/>
</svg>
