<svg xmlns="http://www.w3.org/2000/svg" viewBox="-18366.135 -17943 20.91 20.131">
  <defs>
    <style>
      .cls-1 {
        fill: #b2d8d3;
      }
    </style>
  </defs>
  <g id="noun_1364409_cc_copy" data-name="noun_1364409_cc copy" transform="translate(-18366.135 -17943)">
    <path id="Path_23" data-name="Path 23" class="cls-1" d="M14.59,23.523l-3.3,3.485a.778.778,0,0,0,.052,1.092.8.8,0,0,0,1.092-.026l4.525-4.785c.026-.026.026-.026.026-.052.026-.026.026-.052.052-.052a.1.1,0,0,0,.026-.078.091.091,0,0,1,.026-.052c0-.026.026-.052.026-.078s0-.052.026-.052c0-.052.026-.1.026-.156h0a.33.33,0,0,0-.026-.156c0-.026,0-.052-.026-.052,0-.026-.026-.052-.026-.078a.091.091,0,0,0-.026-.052c0-.026-.026-.052-.026-.078-.026-.026-.026-.052-.052-.052,0-.026-.026-.026-.026-.052l-4.525-4.863a.773.773,0,0,0-1.144,1.04.025.025,0,0,0,.026.026l3.277,3.511H.78a.78.78,0,0,0,0,1.56Z" transform="translate(0 -12.678)"/>
    <path id="Path_24" data-name="Path 24" class="cls-1" d="M28.857,0H15.021A1.809,1.809,0,0,0,13.2,1.821v3.3a.78.78,0,1,0,1.56,0v-3.3a.246.246,0,0,1,.26-.26H28.857a.246.246,0,0,1,.26.26V18.309a.246.246,0,0,1-.26.26H15.021a.246.246,0,0,1-.26-.26v-3.3a.78.78,0,0,0-1.56,0v3.3a1.809,1.809,0,0,0,1.821,1.821H28.857a1.809,1.809,0,0,0,1.821-1.821V1.821A1.809,1.809,0,0,0,28.857,0Z" transform="translate(-9.767)"/>
  </g>
</svg>
