<svg xmlns="http://www.w3.org/2000/svg" viewBox="-19068 -13251 18.623 10">
  <defs>
    <style>
      .cls-1 {
        fill: #b2b5c3;
      }
    </style>
  </defs>
  <g id="noun_102656_cc_copy" data-name="noun_102656_cc copy" transform="translate(-19068 -13251)">
    <circle id="Ellipse_47" data-name="Ellipse 47" class="cls-1" cx="2.572" cy="2.572" r="2.572" transform="translate(10.942 0)"/>
    <path id="Path_174" data-name="Path 174" class="cls-1" d="M.833,7.757H5.87L4.457,9.17a.834.834,0,0,0,0,1.123.834.834,0,0,0,1.123,0L8.3,7.575c.072-.072.145-.072.145-.145h0a.834.834,0,0,0,0-1.123l-2.79-2.79a.834.834,0,0,0-1.123,0,.834.834,0,0,0,0,1.123L6.014,6.126H.833a.815.815,0,1,0,0,1.63Z" transform="translate(0 -2.104)"/>
    <path id="Path_175" data-name="Path 175" class="cls-1" d="M28.181,16.4h0A5.321,5.321,0,0,0,23,20.458H33.29A5.179,5.179,0,0,0,28.181,16.4Z" transform="translate(-14.667 -10.458)"/>
  </g>
</svg>
