<svg xmlns="http://www.w3.org/2000/svg" viewBox="-17531 -14732 18.566 19.583">
  <defs>
    <style>
      .cls-1 {
        fill: #b2b5c3;
      }
    </style>
  </defs>
  <g id="_017_add_note" data-name="017_add_note" transform="translate(-17531 -14732)">
    <path id="Path_121" data-name="Path 121" class="cls-1" d="M23.836,9.071,32.928,0l3.921,3.921-9.092,9.092-4.557.572ZM24.7,12.1l2.48-.3,7.863-7.863L32.928,1.823,25.044,9.665Z" transform="translate(-18.283)"/>
    <path id="Path_122" data-name="Path 122" class="cls-1" d="M24.4,14.413l4.218-.509L37.5,5.024,33.874,1.4l-8.881,8.881Zm1.4-3.73,8.075-8.075L36.29,5.024,28.215,13.1l-2.819.36Z" transform="translate(-19.229 -1.103)"/>
    <path id="Path_123" data-name="Path 123" class="cls-1" d="M0,21.475V2.4H9.644V3.672H1.272V20.2h15.26V10.284H17.8V21.475Z" transform="translate(0 -1.891)"/>
    <path id="Path_124" data-name="Path 124" class="cls-1" d="M1,22.051H18.38V11.284h-.848V21.2H1.848V4.248H10.22V3.4H1Z" transform="translate(-0.788 -2.679)"/>
  </g>
</svg>
