<svg xmlns="http://www.w3.org/2000/svg" viewBox="0 0 12.697 17">
  <defs>
    <style>
      .cls-1 {
        fill: #b2b5c3;
      }
    </style>
  </defs>
  <path id="v7" class="cls-1" d="M6.406,0A3.8,3.8,0,0,0,2.835,3.99a3.8,3.8,0,0,0,3.571,3.99A3.8,3.8,0,0,0,9.975,3.99,3.8,3.8,0,0,0,6.406,0Zm0,1.644A2.169,2.169,0,0,1,8.331,3.99,2.17,2.17,0,0,1,6.406,6.336,2.17,2.17,0,0,1,4.478,3.99,2.17,2.17,0,0,1,6.406,1.644ZM6.34,8.834a12.362,12.362,0,0,0-4.153.718,3.489,3.489,0,0,0-2.2,3.264l.231,3.416A.824.824,0,0,0,1.044,17H11.626v0a.822.822,0,0,0,.821-.765l.231-3.414a3.474,3.474,0,0,0-2.2-3.266A12.14,12.14,0,0,0,6.34,8.834Zm0,1.644A10.576,10.576,0,0,1,9.92,11.1a1.871,1.871,0,0,1,1.123,1.61l-.179,2.648H1.817v0L1.633,12.7A1.873,1.873,0,0,1,2.75,11.1a10.658,10.658,0,0,1,3.59-.618Z" transform="translate(0.014)"/>
</svg>
