<svg xmlns="http://www.w3.org/2000/svg" viewBox="-18619 -18044 18.324 18.248">
  <defs>
    <style>
      .cls-1 {
        fill: #3d3f50;
      }
    </style>
  </defs>
  <path id="noun_238880_cc_copy" data-name="noun_238880_cc copy" class="cls-1" d="M18.171,14.9,12.317,9.124l.456-.456a.367.367,0,0,0,0-.532l-.76-.76a8.466,8.466,0,0,0,.152-1.293A6.082,6.082,0,1,0,7.3,12.013l.76.76c.076.076.152.076.3.076s.228-.076.3-.076l.456-.456.76.76v.988a.359.359,0,0,0,.38.38h.988l1.673,1.673v.988a.359.359,0,0,0,.38.38h.988l.684.684c.076.076.152.076.3.076h2.661a.359.359,0,0,0,.38-.38V15.206A.576.576,0,0,1,18.171,14.9ZM4.182,5.322a1.169,1.169,0,0,1-1.14-1.14,1.169,1.169,0,0,1,1.14-1.14,1.169,1.169,0,0,1,1.14,1.14A1.169,1.169,0,0,1,4.182,5.322ZM16.27,16.27c-.076.076-.152.076-.3.076s-.228,0-.3-.076L10.34,10.948a.376.376,0,0,1,.532-.532l5.322,5.322C16.346,15.814,16.346,16.118,16.27,16.27Z" transform="translate(-18619 -18044)"/>
</svg>
