<?xml version="1.0" encoding="utf-8"?>
<!-- Generator: Adobe Illustrator 21.1.0, SVG Export Plug-In . SVG Version: 6.00 Build 0)  -->
<svg version="1.1" id="Layer_1" xmlns="http://www.w3.org/2000/svg" xmlns:xlink="http://www.w3.org/1999/xlink" x="0px" y="0px"
	 viewBox="0 0 78 95.5" style="enable-background:new 0 0 78 95.5;" xml:space="preserve">
<style type="text/css">
	.st0{fill:#5A56A1;}
</style>
<title>2Artboard 97</title>
<path class="st0" d="M78,23.1c0-1.7-0.9-3.2-2.4-4L41.1,0.5c-1.3-0.7-2.9-0.7-4.3,0L2.4,19.1c-1.5,0.8-2.4,2.3-2.4,4v32.2
	c0,21,16.1,39.1,37.1,40.1c21.5,1,39.8-15.6,40.8-37.1c0-0.6,0-1.3,0-1.9V23.1H78z M66,56.4c0,14.9-12.1,27-27,27l0,0v-36H12V27.6
	l27-14.5v34.4h27V56.4z"/>
</svg>
