<svg xmlns="http://www.w3.org/2000/svg" viewBox="0 0 14.369 17.814">
  <defs>
    <style>
      .cls-1 {
        fill: #b2b5c3;
        stroke: #b2b5c3;
        stroke-width: 0.2px;
      }
    </style>
  </defs>
  <g id="noun_1570195_cc" transform="translate(-15.9 -288.285)">
    <g id="Group_1087" data-name="Group 1087" transform="translate(3 -667.977)">
      <path id="Path_637" data-name="Path 637" class="cls-1" d="M13.574,956.362a.574.574,0,0,0-.574.574V973.4a.574.574,0,0,0,1.149,0V956.937A.574.574,0,0,0,13.574,956.362Zm8.006,1.992a6.6,6.6,0,0,1-6.145-.479.574.574,0,0,0-.9.473v6.917a.584.584,0,0,0,.269.485,7.733,7.733,0,0,0,7.228.574,7.8,7.8,0,0,1,3.363-.73,2.137,2.137,0,0,1,.927.18.575.575,0,0,0,.85-.5v-6.917a.588.588,0,0,0-.293-.5,3.766,3.766,0,0,0-1.43-.335,10.328,10.328,0,0,0-3.865.838Zm3.806.311a3,3,0,0,1,.634.1v5.78a3.35,3.35,0,0,0-.568-.1,8.968,8.968,0,0,0-3.865.82,6.531,6.531,0,0,1-5.906-.335v-5.636a7.726,7.726,0,0,0,6.354.114A8.806,8.806,0,0,1,25.386,958.666Z" transform="translate(0 0)"/>
    </g>
  </g>
</svg>
