<svg xmlns="http://www.w3.org/2000/svg" viewBox="-18690 -15121.067 17 17">
  <defs>
    <style>
      .cls-1 {
        fill: #b2b5c3;
      }
    </style>
  </defs>
  <g id="v5" transform="translate(-18690 -15121.067)">
    <path id="Path_115" data-name="Path 115" class="cls-1" d="M8.074,6.805a3.191,3.191,0,0,1,2.214-1.449V0A8.488,8.488,0,0,0,3.1,4.783Z" transform="translate(-2.253)"/>
    <path id="Path_116" data-name="Path 116" class="cls-1" d="M5.33,23.47a2.7,2.7,0,0,1,.109-.82L.492,20.6A8.332,8.332,0,0,0,0,23.47a8.517,8.517,0,0,0,2.678,6.2L6.04,25.465A3.229,3.229,0,0,1,5.33,23.47ZM2.624,28.225A7.515,7.515,0,0,1,.929,23.442a7.609,7.609,0,0,1,.164-1.585L4.4,23.224v.246a4.015,4.015,0,0,0,.492,1.941Z" transform="translate(0 -14.97)"/>
    <path id="Path_117" data-name="Path 117" class="cls-1" d="M17.976,0V5.357a3.174,3.174,0,0,1-.465,6.314,3.1,3.1,0,0,1-1.777-.547L12.4,15.305A8.509,8.509,0,1,0,17.976,0Z" transform="translate(-9.011)"/>
  </g>
</svg>
