<?xml version="1.0" encoding="utf-8"?>
<!-- Generator: Adobe Illustrator 21.1.0, SVG Export Plug-In . SVG Version: 6.00 Build 0)  -->
<svg version="1.1" id="Layer_1" xmlns="http://www.w3.org/2000/svg" xmlns:xlink="http://www.w3.org/1999/xlink" x="0px" y="0px"
	 viewBox="0 0 67 88.6" style="enable-background:new 0 0 67 88.6;" xml:space="preserve">
<style type="text/css">
	.st0{fill:#868686;}
</style>
<g>
	<path class="st0" d="M17.7,63.1v22.5c0,1.7,1.3,3,3,3h25.6c1.7,0,3-1.3,3-3V63.1C60.1,57.3,67,45.9,67,33.5C67,15,52,0,33.5,0
		S0,15,0,33.5C0,45.9,6.9,57.3,17.7,63.1z M43.3,64v6.5H23.7V64H43.3z M23.7,82.6v-6h19.6v6H23.7z M33.5,6C48.7,6,61,18.3,61,33.5
		c0,10.4-5.9,19.9-15.1,24.5h-9.4V38.6h7.8v-6H22.7v6h7.8v19.5h-9.4C11.9,53.4,6,44,6,33.6C6,18.3,18.3,6,33.5,6z"/>
</g>
</svg>
