<?xml version="1.0" encoding="utf-8"?>
<!-- Generator: Adobe Illustrator 21.1.0, SVG Export Plug-In . SVG Version: 6.00 Build 0)  -->
<svg version="1.1" id="Layer_1" xmlns="http://www.w3.org/2000/svg" xmlns:xlink="http://www.w3.org/1999/xlink" x="0px" y="0px"
	 viewBox="0 0 64 64.1" style="enable-background:new 0 0 64 64.1;" xml:space="preserve">
<style type="text/css">
	.st0{fill:#B4B4B4;}
</style>
<title>1Artboard 62</title>
<path class="st0" d="M54.6,9.4c12.5,12.5,12.5,32.8,0,45.3c-6,6-14.1,9.4-22.6,9.4v-8c13.3,0,24-10.7,24.1-23.9
	c0-6.4-2.5-12.5-7.1-17.1l-6.6,6.6c-0.5,0.6-1.4,0.6-2,0c-0.3-0.3-0.4-0.6-0.4-1V2c0-1.1,0.9-2,2-2h18.6C61.4,0,62,0.6,62,1.4
	c0,0.4-0.1,0.7-0.4,1L54.6,9.4z M32,8V0C14.3,0,0,14.3,0,32c0,8.5,3.4,16.6,9.4,22.6l-6.9,6.9c-0.6,0.6-0.6,1.5,0,2.1
	c0.3,0.3,0.6,0.4,1,0.4H22c1.1,0,2-0.9,2-2V43.5c0-0.8-0.7-1.4-1.5-1.4c-0.4,0-0.7,0.2-1,0.4L15,49c-9.4-9.4-9.4-24.6-0.1-33.9
	C19.5,10.5,25.6,8,32,8z"/>
</svg>
