<?xml version="1.0" encoding="utf-8"?>
<!-- Generator: Adobe Illustrator 21.1.0, SVG Export Plug-In . SVG Version: 6.00 Build 0)  -->
<svg version="1.1" id="Layer_1" xmlns="http://www.w3.org/2000/svg" xmlns:xlink="http://www.w3.org/1999/xlink" x="0px" y="0px"
	 viewBox="0 0 231.6 48" style="enable-background:new 0 0 231.6 48;" xml:space="preserve">
<style type="text/css">
	.st0{fill:#B2B2B5;}
	.st1{fill:#70BD45;}
	.st2{fill:#FFFFFF;}
</style>
<path class="st0" d="M89.5,40.7c-1.6,0-2.4-0.7-2.4-2.1s0.8-2.1,2.4-2.1h4.7v1.4h-4.5c-0.8,0-1.2,0.2-1.2,0.7s0.4,0.7,1.2,0.7h2.1
	c1.6,0,2.4,0.7,2.4,2.1c0,1.4-0.8,2.1-2.4,2.1h-4.7v-1.4h4.5c0.8,0,1.2-0.2,1.2-0.7s-0.4-0.7-1.2-0.7H89.5z"/>
<polygon class="st0" points="109.4,40.2 109.4,43.5 108,43.5 108,40.2 104.8,36.4 106.6,36.4 108.7,38.8 110.7,36.4 112.6,36.4 "/>
<path class="st0" d="M125.5,40.7c-1.6,0-2.4-0.7-2.4-2.1s0.8-2.1,2.4-2.1h4.7v1.4h-4.5c-0.8,0-1.2,0.2-1.2,0.7s0.4,0.7,1.2,0.7h2.1
	c1.6,0,2.4,0.7,2.4,2.1c0,1.4-0.8,2.1-2.4,2.1h-4.7v-1.4h4.5c0.8,0,1.2-0.2,1.2-0.7s-0.4-0.7-1.2-0.7H125.5z"/>
<polygon class="st0" points="144.2,37.8 141.4,37.8 141.4,36.4 148.5,36.4 148.5,37.8 145.6,37.8 145.6,43.5 144.2,43.5 "/>
<polygon class="st0" points="161,42.1 166.7,42.1 166.7,43.5 159.6,43.5 159.6,36.4 166.7,36.4 166.7,37.8 161,37.8 161,39.2 
	166.7,39.2 166.7,40.7 161,40.7 "/>
<polygon class="st0" points="179.3,39.5 179.3,43.5 177.8,43.5 177.8,36.4 179.3,36.4 182.1,41.9 184.9,36.4 186.4,36.4 186.4,43.5 
	185,43.5 185,39.5 182.9,43.5 182.9,43.5 181.3,43.5 "/>
<path class="st0" d="M199.9,40.7c-1.6,0-2.4-0.7-2.4-2.1s0.8-2.1,2.4-2.1h4.7v1.4h-4.5c-0.8,0-1.2,0.2-1.2,0.7s0.4,0.7,1.2,0.7h2.1
	c1.6,0,2.4,0.7,2.4,2.1c0,1.4-0.8,2.1-2.4,2.1h-4.7v-1.4h4.5c0.8,0,1.2-0.2,1.2-0.7s-0.4-0.7-1.2-0.7H199.9z"/>
<path class="st0" d="M103.7,4.9h10v4.5H103c-1.9,0-3.4,0.4-4.4,1.1c-1.4,0.7-2.4,2.1-3.1,4.1c-0.2,0.7-0.2,1.3-0.2,1.8
	c0,1.7,0.6,3.4,1.9,4.9c0.8,0.8,1.6,1.4,2.4,1.6c0.8,0.4,1.9,0.6,3.4,0.6h10.8V28h-10.3c-2.6,0-4.6-0.3-5.8-1
	c-2.8-1.2-4.8-3.2-6.1-6c-0.6-1.4-0.9-2.9-0.9-4.5c0-3.4,1.4-6.3,4.1-8.8c1.8-1.3,3.4-2.1,4.8-2.4C100.4,5.1,101.7,4.9,103.7,4.9"/>
<path class="st1" d="M123.5,5H139v4.7h-15.6c-1.2,0-2,0.6-2.2,1.8v0.3c0,0.7,0.4,1.3,1.2,1.8c0.2,0.1,0.5,0.1,0.8,0.1h7.8
	c2,0,3.4,0.2,4.1,0.6c1.8,0.8,3,2,3.7,3.6c0.4,1,0.6,2,0.6,2.9c0,2.3-1.1,4.2-3.2,5.8c-0.6,0.4-1.4,0.7-2.2,0.9
	c-0.6,0.1-1.6,0.2-3.1,0.2h-14.6V23H132c1.3,0,2.2-0.6,2.5-1.9v-0.4c0-0.9-0.4-1.6-1.4-2.1c-0.3-0.2-0.7-0.3-1.2-0.3h-8.8
	c-2.3,0-4.2-1-5.8-3c-0.7-1.1-1-2.2-1-3.4v-0.5c0-2.4,1.1-4.2,3.4-5.6C120.7,5.2,121.9,5,123.5,5"/>
<path class="st1" d="M146.3,16.4c0,2,0.8,3.7,2.3,5.3c1.4,1.2,2.8,1.8,4.4,1.8h0.4c1.2,0,2.5-0.4,3.8-1.3c1.3-1,2.2-2.2,2.7-3.7
	c0.1-0.4,0.3-1.1,0.3-2c0-2-0.8-3.7-2.3-5.2c-1.4-1.3-3-1.9-4.7-1.9c-2,0-3.7,0.8-5.3,2.5c-0.6,0.8-1.1,1.6-1.2,2.2
	C146.4,14.9,146.3,15.6,146.3,16.4 M153.2,5h0.2c3.5,0,6.5,1.4,9,4.3c1.6,2.2,2.4,4.5,2.4,7.1v0.2c0,3.5-1.5,6.5-4.4,9
	c-2.1,1.6-4.5,2.4-7.1,2.4h-0.2c-3.5,0-6.5-1.4-9-4.3c-0.9-1.2-1.5-2.3-1.8-3.4c-0.4-1.3-0.6-2.5-0.6-3.7v-0.2
	c0-3.5,1.4-6.4,4.3-8.9c1.9-1.4,3.7-2.2,5.3-2.3C151.7,5,152.4,5,153.2,5"/>
<path class="st1" d="M167.2,5h4.6v10.8c0,3,1.2,5.2,3.5,6.6c1,0.7,2.4,1,4.1,1h10.9v4.5h-10.8c-2.9,0-5.2-0.6-7-1.8
	c-0.5-0.2-1.2-0.8-2.2-1.8c-1.3-1.4-2.1-2.9-2.6-4.3c-0.4-1.1-0.6-2.7-0.6-4.7V5H167.2z"/>
<polygon class="st1" points="185.5,5 190,5 197.2,19.1 204.6,5 208.9,5 197.2,28.4 "/>
<path class="st1" d="M221.6,4.9h10v4.5h-10.7c-1.9,0-3.4,0.4-4.4,1.1c-1.4,0.7-2.4,2.1-3.1,4.1c-0.2,0.7-0.2,1.3-0.2,1.8
	c0,1.7,0.6,3.4,1.9,4.9c0.8,0.8,1.6,1.4,2.4,1.6c0.8,0.4,1.9,0.6,3.4,0.6h10.7V28h-10.3c-2.6,0-4.6-0.3-5.8-1
	c-2.8-1.2-4.8-3.2-6.1-6c-0.6-1.4-0.9-2.9-0.9-4.5c0-3.4,1.4-6.3,4.1-8.8c1.8-1.3,3.4-2.1,4.8-2.4C218.2,5.1,219.5,4.9,221.6,4.9"/>
<path class="st0" d="M83.7,13.6C83.1,15.2,82,16,80.4,16H69.7V9.5H80c0.4,0,0.7,0,0.7,0.1c0.7,0,1.4,0.3,2,0.8
	c0.7,0.7,1.1,1.5,1.1,2.4C83.8,13,83.7,13.3,83.7,13.6 M88.3,13.2v-0.6c0-1.1-0.3-2.2-0.8-3.3c-0.3-0.6-0.7-1.2-1.4-1.8
	c-1.5-1.5-3.5-2.3-6-2.3H69.7l0,0h-4.9v22.7h4.9v-7.5h4.7c1.8,0,3.3,0.4,4.5,1.2c2,1.5,3,3.4,3,5.9v0.3h4.6c0-3.3-1-6-2.9-8.1
	c0.8-0.3,1.6-0.8,2.5-1.7C87.6,16.5,88.3,14.8,88.3,13.2"/>
<path class="st0" d="M110.6,18.6h-7.8c-0.7,0-1.3-0.6-1.3-1.3v-1.8c0-0.7,0.6-1.3,1.3-1.3h7.8"/>
<path class="st1" d="M228.5,18.6h-7.7c-0.7,0-1.3-0.6-1.3-1.3v-1.8c0-0.7,0.6-1.3,1.3-1.3h7.7"/>
<polygon class="st0" points="210,37 209.1,37 209.1,36.5 211.2,36.5 211.2,37 210.4,37 210.4,38.7 210,38.7 "/>
<polygon class="st0" points="212.1,37.5 212.1,38.7 211.7,38.7 211.7,36.5 212.1,36.5 213,38.2 213.8,36.5 214.3,36.5 214.3,38.7 
	213.8,38.7 213.8,37.5 213.2,38.7 213.2,38.7 212.7,38.7 "/>
<path class="st1" d="M14.2,31.5c-1.8-4.2,2.2-4.9,2.2-4.9h6.5c0,0,6.9-0.2,6.6-6.3c-0.3-6-6.5-6-6.5-6H0v27.3C0,45.1,2.8,48,6.4,48
	H28L14.2,31.5z"/>
<path class="st0" d="M41.5,0H6.4C2.9,0,0,2.9,0,6.4V7h23.2C36,6.9,38.6,12.4,38.6,21S27,32.8,27,32.8l12.9,15.1h1.6
	c3.5,0,6.4-2.9,6.4-6.4V6.4C47.9,2.9,45,0,41.5,0"/>
<path class="st2" d="M0,14.2h23c0,0,6.2,0,6.5,6c0.3,6.1-6.6,6.3-6.6,6.3h-6.5c0,0-4,0.7-2.2,4.9L28,47.8h12l-12.9-15
	c0,0,11.6-3.2,11.6-11.8S36.1,6.9,23.3,6.9H0V14.2z"/>
</svg>
