<svg xmlns="http://www.w3.org/2000/svg" viewBox="0 0 17.563 17.563">
  <defs>
    <style>
      .cls-1 {
        fill: #b2b5c3;
        stroke: #b2b5c3;
        stroke-width: 0.5px;
      }
    </style>
  </defs>
  <g id="noun_1316693_cc" transform="translate(-5.747 -5.75)">
    <g id="Group_1088" data-name="Group 1088" transform="translate(5.997 6)">
      <path id="Path_638" data-name="Path 638" class="cls-1" d="M6.349,958.363A.388.388,0,0,0,6,958.75v5.4c0,.008,0,.016,0,.024v5.429a.387.387,0,0,0,0,.042v5.387a.388.388,0,0,0,.388.388H22.672a.388.388,0,0,0,.388-.388v-5.4q0-.015,0-.03V964.18a.389.389,0,0,0,0-.042V958.75a.388.388,0,0,0-.351-.388H6.349Zm.424.776h4.653v4.654H6.773Zm5.429,0h4.653v4.654H12.2Zm5.429,0h4.653v4.654H17.631ZM6.773,964.567h4.653v4.654H6.773Zm5.429,0h4.653v4.654H12.2Zm5.429,0h4.653v4.654H17.631ZM6.773,970h4.653v4.654H6.773Zm5.429,0h4.653v4.654H12.2Zm5.429,0h4.653v4.654H17.631Z" transform="translate(-5.997 -958.362)"/>
    </g>
  </g>
</svg>
