<svg xmlns="http://www.w3.org/2000/svg" viewBox="-12604.917 -16471.754 10.819 10.346">
    <defs>
        <style>
            .cls-1{fill:#18b7a3}
        </style>
    </defs>
    <path id="saved_search_item" d="M8.36 10.346a.545.545 0 0 1-.27-.07L5.354 8.843 2.63 10.275a.579.579 0 0 1-.27.07.563.563 0 0 1-.411-.188.573.573 0 0 1-.129-.493l.517-3.006L.1 4.486A.585.585 0 0 1-.024 3.9a.464.464 0 0 1 .388-.341L3.487 3.1 4.872.282A.487.487 0 0 1 5.307 0H5.4a.474.474 0 0 1 .434.282l1.387 2.806 3.124.458a.479.479 0 0 1 .388.341.56.56 0 0 1-.129.587L8.372 6.647l.517 3.006a.573.573 0 0 1-.129.493.5.5 0 0 1-.4.2z" class="cls-1" transform="translate(-12604.862 -16471.754)"/>
</svg>
