<?xml version="1.0" encoding="utf-8"?>
<!-- Generator: Adobe Illustrator 21.1.0, SVG Export Plug-In . SVG Version: 6.00 Build 0)  -->
<svg version="1.1" id="Layer_1" xmlns="http://www.w3.org/2000/svg" xmlns:xlink="http://www.w3.org/1999/xlink" x="0px" y="0px"
	 viewBox="0 0 100 99.9" style="enable-background:new 0 0 100 99.9;" xml:space="preserve">
<style type="text/css">
	.st0{fill:#B4B4B4;}
</style>
<title>setng cog</title>
<path class="st0" d="M96.4,52.1l-6.4-3c-0.1-2.5-0.4-5-0.9-7.4l5.6-4.5c2.4-1.9,3-5.3,1.5-7.9l-4.4-7.7c-1.5-2.6-4.7-3.8-7.5-2.8
	l-6.8,2.4c-1.9-1.8-3.9-3.4-6.1-4.8l0.7-7.1c0.3-3-1.6-5.8-4.5-6.7L59,0.2c-2.9-0.8-6,0.6-7.3,3.4l-3.1,6.5
	c-2.5,0.1-4.9,0.4-7.4,0.9l-4.5-5.6c-1.7-2.2-5-2.8-7.7-1.3l-7.8,4.3c-2.7,1.5-3.8,4.7-2.8,7.5l2.5,6.8c-1.7,1.8-3.2,3.8-4.5,5.9
	l-7.1-0.8c-3-0.3-5.8,1.6-6.7,4.5l-2.4,8.5c-0.8,2.9,0.6,6,3.3,7.3l6.6,3.1c0.1,2.5,0.4,4.9,0.9,7.4L5.5,63c-2.3,2.1-3,5.4-1.5,8.1
	l4.4,7.7c1.5,2.7,4.7,3.8,7.5,2.8l6.8-2.5c1.8,1.6,3.6,3.1,5.7,4.4l-0.8,7.1c-0.3,3,1.6,5.8,4.5,6.7l8.6,2.4c2.9,0.8,6-0.6,7.3-3.3
	l3.1-6.5c2.5-0.1,5-0.4,7.4-0.9l4.5,5.6c1.2,1.5,3,2.3,4.9,2.3c1.1,0,2.1-0.3,3-0.8l7.7-4.4c2.7-1.5,3.8-4.7,2.8-7.5L79,77.6
	c1.7-1.8,3.2-3.8,4.6-5.8l7.1,0.8c3,0.3,5.8-1.6,6.7-4.5l2.4-8.5C100.6,56.5,99.2,53.4,96.4,52.1z M65.5,54.4
	c-2.4,8.5-11.3,13.5-19.8,11.1S32.2,54.2,34.6,45.7s11.3-13.5,19.8-11.1l0,0C62.9,37,67.9,45.9,65.5,54.4
	C65.5,54.5,65.5,54.5,65.5,54.4L65.5,54.4z"/>
</svg>
