<?xml version="1.0" encoding="utf-8"?>
<!-- Generator: Adobe Illustrator 21.1.0, SVG Export Plug-In . SVG Version: 6.00 Build 0)  -->
<svg version="1.1" id="Layer_1" xmlns="http://www.w3.org/2000/svg" xmlns:xlink="http://www.w3.org/1999/xlink" x="0px" y="0px"
	 viewBox="0 0 22.8 20.1" style="enable-background:new 0 0 22.8 20.1;" xml:space="preserve">
<style type="text/css">
	.st0{fill:none;stroke:#000000;stroke-width:2;stroke-linecap:round;stroke-linejoin:round;}
</style>
<title>Artboard Copy 11</title>
<desc>Created with Sketch.</desc>
<g>
	<g>
		<path class="st0" d="M9.8,2L1.3,16.1c-0.4,0.6-0.4,1.4,0,2s1,1,1.7,1h16.9c0.7,0,1.4-0.4,1.7-1s0.3-1.4,0-2L13.2,2
			c-0.4-0.6-1-1-1.7-1S10.2,1.4,9.8,2z"/>
		<path class="st0" d="M11.5,7.1v4"/>
		<path d="M11.5,16.1c-0.6,0-1-0.4-1-1s0.4-1,1-1s1,0.4,1,1S12.1,16.1,11.5,16.1z"/>
	</g>
</g>
</svg>
