<?xml version="1.0" encoding="utf-8"?>
<!-- Generator: Adobe Illustrator 21.1.0, SVG Export Plug-In . SVG Version: 6.00 Build 0)  -->
<svg version="1.1" id="Layer_1" xmlns="http://www.w3.org/2000/svg" xmlns:xlink="http://www.w3.org/1999/xlink" x="0px" y="0px"
	 viewBox="0 0 62.4 80.4" style="enable-background:new 0 0 62.4 80.4;" xml:space="preserve">
<style type="text/css">
	.st0{fill:#868686;}
</style>
<title>04</title>
<path class="st0" d="M3.2,80.4C1.4,80.4,0,79,0,77.2v-74C0,1.4,1.4,0,3.2,0H39l0.4,0.2h0.2c0.7,0,1.3,0.3,1.8,0.9l20,19.9
	c0.6,0.6,1,1.3,1,2.2v54c0,1.8-1.4,3.2-3.2,3.2H3.2z M6.4,74H56V26.4H39.2c-1.8,0-3.2-1.4-3.2-3.2V6.4H6.4V74z M42.4,20h9.1
	l-9.1-9.1V20z"/>
<rect x="14" y="32" class="st0" width="18.4" height="6.4"/>
<rect x="14" y="46" class="st0" width="34.4" height="6.4"/>
<rect x="14" y="60" class="st0" width="34.4" height="6.4"/>
</svg>
