<?xml version="1.0" encoding="utf-8"?>
<!-- Generator: Adobe Illustrator 21.1.0, SVG Export Plug-In . SVG Version: 6.00 Build 0)  -->
<svg version="1.1" id="Layer_1" xmlns="http://www.w3.org/2000/svg" xmlns:xlink="http://www.w3.org/1999/xlink" x="0px" y="0px"
	 viewBox="0 0 64 82" style="enable-background:new 0 0 64 82;" xml:space="preserve">
<style type="text/css">
	.st0{fill:#68B23B;}
</style>
<title>04</title>
<path class="st0" d="M0,4v74c0,2.2,1.8,4,4,4h56c2.2,0,4-1.8,4-4V24c0-1.1-0.4-2.1-1.2-2.8l-20-19.9c-0.7-0.7-1.5-1.1-2.4-1.1L40,0
	h-0.4H4C1.8,0,0,1.8,0,4z M44,13.6l6.4,6.4H44V13.6z M8,8h28v16c0,2.2,1.8,4,4,4h16v46H8V8z"/>
<rect x="14" y="32" class="st0" width="20" height="8"/>
<rect x="14" y="46" class="st0" width="36" height="8"/>
<rect x="14" y="60" class="st0" width="36" height="8"/>
</svg>
