<?xml version="1.0" encoding="utf-8"?>
<!-- Generator: Adobe Illustrator 21.1.0, SVG Export Plug-In . SVG Version: 6.00 Build 0)  -->
<svg version="1.1"
	 id="Layer_1" xmlns:cc="http://creativecommons.org/ns#" xmlns:dc="http://purl.org/dc/elements/1.1/" xmlns:inkscape="http://www.inkscape.org/namespaces/inkscape" xmlns:rdf="http://www.w3.org/1999/02/22-rdf-syntax-ns#" xmlns:sodipodi="http://sodipodi.sourceforge.net/DTD/sodipodi-0.dtd" xmlns:svg="http://www.w3.org/2000/svg"
	 xmlns="http://www.w3.org/2000/svg" xmlns:xlink="http://www.w3.org/1999/xlink" x="0px" y="0px" viewBox="0 0 725.2 646.4"
	 style="enable-background:new 0 0 725.2 646.4;" xml:space="preserve">
<style type="text/css">
	.st0{fill:#68B23B;}
</style>
<path class="st0" d="M244.1,0c-74.9,0-135.8,68-135.8,151.7c0,83.6,60.9,151.7,135.8,151.7s135.7-68.1,135.7-151.7S318.9,0,244.1,0z
	 M244.1,62.5c40.4,0,73.2,40,73.2,89.2s-32.9,89.2-73.2,89.2c-40.4,0-73.3-40-73.3-89.2C170.8,102.5,203.7,62.5,244.1,62.5z
	 M562.8,86.1c-62.1,0-112.7,56.2-112.7,125.2s50.6,125.2,112.7,125.2c62.2,0,112.7-56.1,112.7-125.2
	C675.5,142.3,624.9,86.1,562.8,86.1L562.8,86.1z M562.8,148.6c27.7,0,50.2,28.1,50.2,62.7c0,34.5-22.5,62.6-50.2,62.6
	s-50.2-28.1-50.2-62.6C512.6,176.7,535.1,148.6,562.8,148.6L562.8,148.6z M241.6,335.9c-53.4,0-106.9,9.1-157.9,27.3
	c-49.4,18.3-86.9,74-83.5,124.1L9,617.2c1.2,16.4,14.8,29.1,31.2,29.1h402.4v0.1c16.4,0,30.1-12.7,31.2-29.1l8.8-129.8
	c3.5-50.2-33.9-105.9-83.8-124.2C348.3,345,295,335.9,241.6,335.9L241.6,335.9z M518.4,369.8c-16.6,0.1-29.9,14-30.2,30.7
	c-0.3,17.3,13.5,31.5,30.7,31.8c37.7,0.7,74.6,7.4,109.6,19.9c19.7,7.3,35.2,32.8,34.1,48.6l-5.7,83h-131c-17.3,0-31.3,14-31.3,31.3
	s14,31.3,31.3,31.3h160.3c16.4,0,30-12.7,31.2-29.1L725,505c3.1-45.1-30.4-95.2-75.1-111.6c-41.7-14.9-85.4-22.9-129.8-23.6
	C519.5,369.8,519,369.8,518.4,369.8L518.4,369.8z M241.6,398.4c46.3,0,92.5,7.8,136.1,23.5c25.3,9.3,44.1,41.1,42.7,61.2l-6.8,100.7
	h-344v-0.1l-7-100.7c-1.3-20.1,17.4-51.9,42.5-61.1C148.9,406.2,195.3,398.4,241.6,398.4L241.6,398.4z"/>
</svg>
