<?xml version="1.0" encoding="utf-8"?>
<!-- Generator: Adobe Illustrator 21.1.0, SVG Export Plug-In . SVG Version: 6.00 Build 0)  -->
<svg version="1.1" id="Layer_1" xmlns="http://www.w3.org/2000/svg" xmlns:xlink="http://www.w3.org/1999/xlink" x="0px" y="0px"
	 viewBox="0 0 77 77" style="enable-background:new 0 0 77 77;" xml:space="preserve">
<style type="text/css">
	.st0{fill:#B4B4B4;}
	.st1{fill:#26A6B5;}
</style>
<path class="st0" d="M33.5,67C15,67,0,52,0,33.5S15,0,33.5,0S67,15,67,33.5S52,67,33.5,67z M33.5,6.7c-14.8,0-26.8,12-26.8,26.8
	s12,26.8,26.8,26.8s26.8-12,26.8-26.8S48.3,6.7,33.5,6.7z M77,68.1L68.1,77L51.6,60.4l8.9-8.9L77,68.1z"/>
<polygon class="st1" points="23.4,53.6 33.4,36.9 20.1,33.5 43.5,13.4 36.8,30.1 50.2,33.5 "/>
</svg>
