<?xml version="1.0" encoding="utf-8"?>
<!-- Generator: Adobe Illustrator 21.1.0, SVG Export Plug-In . SVG Version: 6.00 Build 0)  -->
<svg version="1.1" id="Layer_1" xmlns="http://www.w3.org/2000/svg" xmlns:xlink="http://www.w3.org/1999/xlink" x="0px" y="0px"
	 viewBox="0 0 95.6 100" style="enable-background:new 0 0 95.6 100;" xml:space="preserve">
<style type="text/css">
	.st0{fill:#B4B4B4;}
</style>
<title>all</title>
<g>
	<g>
		<path class="st0" d="M92.7,82.9c1.6,0,2.9-1.3,2.9-2.9v-4.6c-0.1-1.8-0.9-3.5-2.2-4.7c0,0-18.8-16-20.2-41.4
			C71.5-1.2,55.9,0,47.8,0S24.2-1.2,22.4,29.2C21,54.7,2.2,70.6,2.2,70.6c-1.3,1.2-2.1,2.9-2.2,4.7V80c0,1.6,1.3,2.9,2.9,2.9H92.7
			L92.7,82.9z"/>
		<path class="st0" d="M36.3,88.6c0,5.2,4.3,11.4,9.5,11.4h3.8c5.2,0,9.5-6.2,9.5-11.4H36.3z"/>
	</g>
</g>
</svg>
