<?xml version="1.0" encoding="utf-8"?>
<!-- Generator: Adobe Illustrator 21.1.0, SVG Export Plug-In . SVG Version: 6.00 Build 0)  -->
<svg version="1.1" id="Layer_1" xmlns="http://www.w3.org/2000/svg" xmlns:xlink="http://www.w3.org/1999/xlink" x="0px" y="0px"
	 viewBox="0 0 572.4 567" style="enable-background:new 0 0 572.4 567;" xml:space="preserve">
<style type="text/css">
	.st0{fill:#383838;}
</style>
<g transform="translate(0.000000,600.000000) scale(0.100000,-0.100000)">
	<path class="st0" d="M2304.3,5989.1c-328-47-566-136-682-254c-107-110-143-190-143-319c0-135,63-286,257-612
		c321-540,381-659,428-845c36-143,37-364,3-416c-36-55-161-84-288-67c-101,13-117,22-204,115c-126,135-187,165-250,124
		c-101-67-61-182,109-317l60-47l-40,6c-201,32-468,33-790,1c-207-20-355-16-411,12c-33,16-42,28-58,74c-27,77-26,250,3,386
		c77,372,333,832,562,1012c72,57,170,108,222,117c44,8,48,22,10,31c-68,18-236-39-349-117c-90-62-184-150-271-255
		c-191-229-313-441-392-679c-54-161-71-248-78-386c-5-102-3-126,17-190c31-103,61-157,117-210c62-61,135-97,248-122
		c84-19,127-20,640-22c517-2,557-3,668-24c64-12,154-35,200-51c105-39,264-134,289-174c43-68-9-219-112-329c-54-58-56-59-145-77
		c-113-23-195-54-229-85c-21-19-26-33-26-70c0-81,42-115,140-115c52,0,162,31,223,62l39,19l-59-78c-142-187-205-297-361-629
		c-102-218-139-282-200-347c-41-42-67-46-150-22c-236,71-560,408-750,783c-132,260-179,474-138,632c8,30,12,57,9,60
		c-12,12-54-56-73-118c-64-204-18-480,139-823c76-167,135-264,237-392c145-183,322-341,447-401c80-37,221-60,294-46
		c91,16,160,56,238,134c92,94,167,208,378,581c215,380,265,460,351,563c107,127,225,220,362,284c50,24,70,28,100,22
		c77-14,181-153,216-286c11-44,9-54-21-150c-37-116-50-213-32-247c15-28,69-61,99-61c40,0,80,28,108,76c29,49,63,175,65,234v35
		l16-35c145-314,179-372,399-690c132-190,180-276,193-346c8-41,6-48-25-89c-100-131-390-243-734-285c-126-15-393-12-522,6
		c-202,28-357,92-457,187l-44,42l7-30c28-122,251-272,499-335c190-48,328-64,552-64c177,0,216,4,340,28c163,32,285,70,404,129
		c107,52,205,148,254,247c30,60,32,71,32,170c-1,85-5,117-24,170c-44,121-97,225-228,445c-279,471-337,579-390,724
		c-52,145-66,220-66,366c0,153,10,183,76,217c58,30,200,37,294,14c65-16,71-20,128-88c76-88,166-158,206-158c60,0,119,53,119,107
		c0,58-80,162-183,238c-21,15-36,29-35,30c2,2,55-3,118-11c157-18,410-17,620,3c219,21,430,21,485,1c34-13,43-23,62-69
		c30-73,32-244,4-388c-79-407-359-888-618-1061c-43-29-104-59-145-71c-78-24-76-39,4-39c64,0,185,40,266,88c274,164,585,586,710,967
		c59,179,76,271,77,415c0,107-3,134-24,190c-61,168-158,254-331,294c-118,28-261,34-665,29c-635-8-811,19-1054,166
		c-102,62-116,80-116,154c0,50,6,75,34,129c47,95,131,185,179,194c148,25,281,75,302,113c15,30,12,94-6,120c-47,67-155,66-321-2
		l-62-25l58,76c139,183,177,252,419,752c62,128,116,208,165,244c25,19,31,19,90,7c246-50,596-409,799-822c121-245,163-448,124-599
		c-8-30-12-57-9-60c12-12,55,57,75,123c29,92,31,269,4,396c-40,189-183,528-286,682c-148,219-379,447-531,525c-73,37-180,57-273,52
		c-110-6-178-39-271-132c-92-93-166-207-378-581c-216-382-265-461-356-568c-106-126-199-201-338-271c-79-39-109-44-152-22
		c-45,24-110,103-146,178c-51,106-53,137-15,254c24,72,33,119,34,172c1,70,0,75-29,98c-111,88-221-26-242-250c-5-60-8-67-16-46
		c-97,237-186,393-393,690c-126,181-197,309-207,372c-19,126,267,281,649,350c111,20,161,23,359,22c177,0,251-4,320-17
		c184-36,320-95,402-174c25-24,47-42,50-40c13,14-17,67-68,122c-107,113-254,190-459,239C2812.3,5993.1,2486.3,6015.1,2304.3,5989.1
		z M2592.3,3808.1c57-62,153-112,241-127c52-9,75-8,132,6c70,18,289,118,346,159c20,14,29,17,25,7c-64-149-62-140-62-249
		c0-94,3-111,29-168c44-95,188-220,356-308l55-29l-35-2c-200-15-352-115-406-265c-21-59-44-235-44-342v-88l-43,59
		c-123,167-301,225-487,158c-78-29-221-98-279-137c-23-15-33-18-28-8c64,150,62,141,61,245c0,117-22,186-79,253
		c-45,52-175,150-279,210l-80,47l74,7c92,8,144,26,215,74c135,89,177,195,192,476l6,131l21-29
		C2534.3,3872.1,2565.3,3836.1,2592.3,3808.1z"/>
</g>
</svg>
