<svg xmlns="http://www.w3.org/2000/svg" viewBox="-12159 -13122.715 49.023 49.023">
  <defs>
    <style>
      .cls-1 {
        fill: #b2b5c3;
      }
    </style>
  </defs>
  <g id="noun_235862_cc_copy" data-name="noun_235862_cc copy" transform="translate(-12159 -13122.715)">
    <g id="Group_132" data-name="Group 132" transform="translate(0)">
      <g id="Group_130" data-name="Group 130" transform="translate(13.277 28.597)">
        <path id="Path_196" data-name="Path 196" class="cls-1" d="M8.543,16.043H7.521a1.021,1.021,0,0,1,0-2.043H8.543a1.021,1.021,0,0,1,0,2.043Z" transform="translate(-6.5 -14)"/>
      </g>
      <g id="Group_131" data-name="Group 131">
        <path id="Path_197" data-name="Path 197" class="cls-1" d="M10.213,30.64H8.171a1.021,1.021,0,0,1,0-2.043h2.043a1.021,1.021,0,0,1,0,2.043Zm-6.128-.2h-.2A4.869,4.869,0,0,1,1.634,29.21a.987.987,0,0,1,0-1.43.987.987,0,0,1,1.43,0A4.273,4.273,0,0,0,4.29,28.6.91.91,0,0,1,4.9,29.823C4.9,30.231,4.494,30.435,4.085,30.435Zm-3.064-4.7A.965.965,0,0,1,0,24.716V22.673a.965.965,0,0,1,1.021-1.021.935.935,0,0,1,1.021.817v2.043A1.144,1.144,0,0,1,1.021,25.737Zm0-6.332A.965.965,0,0,1,0,18.384V16.341A.965.965,0,0,1,1.021,15.32a.965.965,0,0,1,1.021,1.021v2.043A.965.965,0,0,1,1.021,19.405Zm0-6.128A.965.965,0,0,1,0,12.256V10.213A.965.965,0,0,1,1.021,9.192a.965.965,0,0,1,1.021,1.021v2.043A.965.965,0,0,1,1.021,13.277Zm28.6-2.043A1.094,1.094,0,0,1,28.6,10.213V8.171a1.021,1.021,0,0,1,2.043,0v2.043A1.094,1.094,0,0,1,29.618,11.235ZM1.021,7.149A1.094,1.094,0,0,1,0,6.128V5.107a3.476,3.476,0,0,1,.2-1.43A.91.91,0,0,1,1.43,3.064c.613,0,.817.613.817,1.226a1.228,1.228,0,0,0-.2.817V6.128A1.094,1.094,0,0,1,1.021,7.149ZM29.414,4.9a1.042,1.042,0,0,1-1.021-.817c-.2-.409-.409-1.021-.817-1.226a.987.987,0,0,1,0-1.43.987.987,0,0,1,1.43,0,4.869,4.869,0,0,1,1.226,2.247A.992.992,0,0,1,29.618,4.9ZM3.881,2.247A1.042,1.042,0,0,1,2.86,1.43,1.27,1.27,0,0,1,3.677.2,3.476,3.476,0,0,1,5.107,0h.817A.965.965,0,0,1,6.945,1.021.965.965,0,0,1,5.924,2.043H5.107a1.228,1.228,0,0,0-.817.2Zm20.631-.2H22.469a.965.965,0,0,1-1.021-1.021A1.094,1.094,0,0,1,22.469,0h2.043a.965.965,0,0,1,1.021,1.021A.965.965,0,0,1,24.512,2.043Zm-6.128,0H16.341A.965.965,0,0,1,15.32,1.021.965.965,0,0,1,16.341,0h2.043a.965.965,0,0,1,1.021,1.021A.965.965,0,0,1,18.384,2.043Zm-6.128,0H10.213A.965.965,0,0,1,9.192,1.021.965.965,0,0,1,10.213,0h2.043a.965.965,0,0,1,1.021,1.021A1.094,1.094,0,0,1,12.256,2.043Z" transform="translate(0 0)"/>
      </g>
      <path id="Path_198" data-name="Path 198" class="cls-1" d="M15.734,7.726l.2.409V7.521A.965.965,0,0,0,14.917,6.5a1.061,1.061,0,0,0-.817.409A6.116,6.116,0,0,1,15.734,7.726Z" transform="translate(14.701 6.777)"/>
    </g>
    <path id="Path_199" data-name="Path 199" class="cls-1" d="M34.533,9h-9.8a10.528,10.528,0,0,1,2.655,7.354,10.984,10.984,0,0,1-11.03,11.03h-4.29A5.017,5.017,0,0,1,9,26.362H9v8.171a5.057,5.057,0,0,0,5.107,5.107H34.533a5.057,5.057,0,0,0,5.107-5.107V14.107A5.057,5.057,0,0,0,34.533,9Z" transform="translate(9.384 9.384)"/>
    <path id="Path_200" data-name="Path 200" class="cls-1" d="M10.147,21.946V23.58a3.141,3.141,0,0,0,3.064,3.064H17.5a8.955,8.955,0,0,0,6.332-15.32L20.564,8.056a1.243,1.243,0,0,0-1.634,0,1.021,1.021,0,0,0,0,1.634c.2.2.2.409.2.817s0,.613-.2.817a.987.987,0,0,1-1.43,0L16.479,10.3a1.243,1.243,0,0,0-1.634,0,1.243,1.243,0,0,0,0,1.634l1.021,1.021c.2.2.2.409.2.817s0,.613-.2.817a.987.987,0,0,1-1.43,0L12.8,12.959a1.155,1.155,0,0,0-1.634,1.634l2.451,2.451c.2.2.2.409.2.817s0,.613-.2.817a.987.987,0,0,1-1.43,0L9.943,16.431a1.243,1.243,0,0,0-1.634,0,1.021,1.021,0,0,0,0,1.634l5.311,5.311c.2.2.2.409.2.817s0,.613-.2.817a.987.987,0,0,1-1.43,0Z" transform="translate(8.237 8.08)"/>
  </g>
</svg>
