<?xml version="1.0" encoding="utf-8"?>
<!-- Generator: Adobe Illustrator 21.1.0, SVG Export Plug-In . SVG Version: 6.00 Build 0)  -->
<svg version="1.1"
	 id="Layer_1" xmlns:cc="http://creativecommons.org/ns#" xmlns:dc="http://purl.org/dc/elements/1.1/" xmlns:inkscape="http://www.inkscape.org/namespaces/inkscape" xmlns:rdf="http://www.w3.org/1999/02/22-rdf-syntax-ns#" xmlns:sodipodi="http://sodipodi.sourceforge.net/DTD/sodipodi-0.dtd" xmlns:svg="http://www.w3.org/2000/svg"
	 xmlns="http://www.w3.org/2000/svg" xmlns:xlink="http://www.w3.org/1999/xlink" x="0px" y="0px" viewBox="0 0 79 79"
	 style="enable-background:new 0 0 79 79;" xml:space="preserve">
<style type="text/css">
	.st0{fill:#FFFFFF;stroke:#CCCCCC;stroke-miterlimit:10;}
	.st1{fill:#DB0505;}
</style>
<circle class="st0" cx="39.5" cy="39.5" r="39"/>
<g transform="translate(0,-952.36218)">
	<path class="st1" d="M40.2,967.4c-0.9,0.1-1.7,0.5-2.2,1.3l-21.6,36.4c-0.8,1.3-0.3,2.9,1,3.6c0.4,0.2,0.9,0.3,1.3,0.3h43.1
		c1.5,0,2.7-1.2,2.7-2.6c0-0.5-0.1-0.9-0.3-1.3l-21.6-36.4C42.1,967.8,41.2,967.3,40.2,967.4z M40.3,978.9c1.3,0,2.3,1,2.3,2.3
		L42,991.7c0,1-0.8,1.7-1.7,1.7s-1.7-0.8-1.7-1.7L38,981.3C38,980,39,978.9,40.3,978.9z M40.3,996.3c1.6,0,2.9,1.3,2.9,2.9
		s-1.3,2.9-2.9,2.9s-2.9-1.3-2.9-2.9C37.4,997.6,38.7,996.3,40.3,996.3L40.3,996.3z"/>
</g>
</svg>
